<svg version="1.1" id="Layer_1" xmlns="http://www.w3.org/2000/svg" xmlns:xlink="http://www.w3.org/1999/xlink" x="0px" y="0px"
	 width="100%" viewBox="0 0 524 476" enable-background="new 0 0 524 476" xml:space="preserve">
<path fill="#000000" opacity="1.000000" stroke="none" 
	d="
M305.000000,477.000000 
	C203.333359,477.000000 102.166718,477.000000 1.000054,477.000000 
	C1.000036,318.333405 1.000036,159.666794 1.000018,1.000139 
	C175.666565,1.000093 350.333130,1.000093 524.999756,1.000046 
	C524.999878,159.666519 524.999878,318.333038 524.999939,476.999786 
	C451.833344,477.000000 378.666656,477.000000 305.000000,477.000000 
M95.158653,438.563782 
	C95.359108,438.828003 95.613922,439.020111 96.243385,439.595276 
	C96.579811,439.729980 96.916237,439.864685 97.658226,440.724670 
	C123.276833,440.805695 148.895416,440.892090 174.514099,440.930786 
	C175.050598,440.931610 175.587921,440.381195 176.755875,439.807556 
	C177.763992,437.865601 178.772110,435.923676 179.865051,433.240784 
	C179.828125,432.498108 179.791199,431.755463 179.886673,430.110474 
	C179.862885,427.077789 179.839111,424.045105 179.922226,420.337524 
	C179.869385,419.887268 179.816544,419.437012 179.870789,418.056946 
	C179.829636,404.035767 179.788467,390.014618 179.873566,375.141479 
	C179.844833,373.418579 179.816116,371.695648 179.922119,369.194794 
	C180.255768,367.408905 180.589417,365.623047 180.995346,362.924225 
	C180.997177,355.110748 181.048538,347.296661 180.956787,339.484283 
	C180.939560,338.016174 180.350983,336.554749 179.967957,334.275726 
	C179.908340,333.189484 179.848724,332.103241 179.921844,330.175140 
	C179.801926,327.727509 179.682022,325.279846 179.631775,321.999207 
	C179.613510,320.053650 179.595230,318.108093 179.807251,315.496582 
	C179.786606,314.321136 179.765961,313.145721 179.818253,311.312317 
	C179.795303,310.872742 179.772369,310.433197 179.895203,309.171936 
	C179.861053,307.784546 179.826920,306.397125 179.920532,304.167511 
	C179.790421,301.712250 179.660309,299.256989 179.604050,295.944580 
	C179.533829,293.647888 179.463608,291.351227 179.692108,288.287872 
	C179.737457,284.193573 179.782806,280.099304 179.953888,275.537811 
	C179.953888,275.537811 180.038361,275.061401 180.659851,275.286194 
	C181.044952,275.604431 181.474487,275.881958 181.808655,276.246826 
	C193.051590,288.522247 204.218506,300.868073 215.540405,313.070129 
	C225.795578,324.122559 236.264954,334.975922 246.557007,345.994476 
	C265.110443,365.857605 283.600037,385.780396 302.120209,405.674622 
	C311.037842,415.253845 319.964264,424.824890 329.333618,434.875153 
	C331.537262,436.893005 333.740875,438.910858 336.887756,440.975098 
	C355.415863,440.979492 373.944031,441.006195 392.471924,440.945831 
	C393.953491,440.941010 395.433075,440.335297 397.633209,439.907532 
	C401.110138,438.269104 403.365448,436.096710 401.018158,431.258423 
	C393.276031,422.584442 385.702820,413.752075 377.753906,405.271912 
	C364.367004,390.990326 350.704468,376.967499 337.228241,362.769073 
	C326.476196,351.440857 315.774170,340.063812 305.168671,328.598633 
	C302.021454,325.196350 299.276459,321.422058 295.836731,317.190247 
	C298.217865,317.043823 299.661804,316.955017 302.026459,316.991302 
	C322.250366,316.979980 342.474243,316.968658 363.568298,316.982483 
	C364.707520,316.881775 365.846741,316.781067 367.909210,316.831573 
	C371.715271,316.890015 375.534973,316.783112 379.319977,317.096130 
	C380.652985,317.206390 381.901001,318.344666 383.085358,319.773651 
	C382.464203,322.869934 380.778687,324.314514 377.609344,325.589203 
	C373.997620,327.041870 371.180023,330.468903 367.193329,333.351990 
	C367.127869,342.106079 367.025635,350.860199 367.041565,359.614136 
	C367.043640,360.762543 367.651093,361.909851 367.989563,363.774780 
	C369.446960,365.244659 370.665863,367.146240 372.404663,368.106720 
	C378.591888,371.524384 385.505737,371.702209 392.175018,370.715302 
	C397.480255,369.930206 403.042725,368.306824 404.979553,360.990326 
	C404.986267,353.257538 405.052246,345.523956 404.952576,337.792542 
	C404.931213,336.134552 404.310059,334.484344 403.807190,332.161591 
	C399.070831,329.695709 394.334503,327.229858 389.199127,324.556244 
	C389.161804,324.109589 389.032043,322.555603 389.030243,320.424286 
	C391.559967,317.051880 395.100403,316.485779 399.871460,316.945648 
	C407.672577,316.964813 415.474762,317.059845 423.274048,316.949249 
	C425.195190,316.921997 427.106842,316.225067 429.690796,315.609558 
	C434.724701,312.640533 432.882751,307.644043 432.945862,303.461029 
	C433.146729,290.151703 433.210663,276.823822 432.614716,263.535095 
	C432.514832,261.308105 428.865814,259.240265 425.941895,257.013733 
	C395.741943,257.010986 365.542023,257.019470 335.342072,256.990112 
	C331.874146,256.986725 328.406372,256.771973 324.785400,256.098328 
	C324.979004,255.401962 324.958496,254.498703 325.399963,254.041885 
	C329.016052,250.300156 332.962799,246.852463 336.351501,242.920990 
	C350.400787,226.621353 357.311951,207.362427 357.709564,186.099731 
	C357.880219,176.974228 356.549591,167.513947 354.055695,158.729660 
	C351.442169,149.523956 347.670502,140.255173 342.452454,132.293655 
	C337.470215,124.691895 330.300629,118.377518 323.467621,112.186989 
	C319.004822,108.143806 313.773285,104.543503 308.277863,102.129349 
	C296.497437,96.954140 284.381531,92.404602 270.700165,93.315140 
	C269.808502,93.169693 268.921082,92.936317 268.024475,92.893097 
	C262.324707,92.618324 256.622864,92.385513 249.996918,92.031219 
	C234.351227,92.069977 218.705521,92.108742 202.573807,92.228882 
	C202.269409,92.398781 202.068420,92.651093 201.075623,93.033478 
	C198.387909,93.092499 195.700211,93.151520 192.452118,92.878853 
	C191.298386,92.986816 190.144653,93.094780 188.098618,93.102364 
	C181.821259,93.425148 175.531311,93.609566 169.276474,94.179581 
	C167.915024,94.303650 165.842575,95.597359 165.559906,96.720428 
	C164.971100,99.059944 164.382156,102.328087 165.544067,103.992264 
	C168.220596,107.825821 172.007294,110.869560 175.227585,114.341309 
	C181.470642,121.071846 187.487869,128.019608 193.910934,134.571228 
	C196.101883,136.806015 199.119202,139.253433 201.961502,139.531250 
	C204.655136,139.794525 208.069046,137.844818 210.252777,135.862244 
	C211.254166,134.953110 210.899887,130.931351 209.721680,129.535858 
	C205.734161,124.813034 200.836777,120.860603 196.825424,116.154861 
	C194.671265,113.627800 193.616638,110.163445 192.987564,107.005501 
	C219.561539,106.929703 246.135498,106.853897 273.634766,106.831192 
	C276.255585,107.131287 279.054077,106.943344 281.464752,107.820808 
	C289.455109,110.729279 297.699615,113.307671 305.089539,117.384956 
	C311.377167,120.854073 317.079895,125.760490 322.180664,130.887390 
	C326.472198,135.200928 329.248047,140.978226 333.188019,145.695648 
	C339.777924,153.585892 341.808868,163.345428 342.733032,172.751160 
	C344.448547,190.211090 342.627777,207.242584 332.818298,222.956329 
	C319.291321,244.625290 299.910492,255.335098 274.011932,257.017609 
	C261.871521,257.012085 249.730957,256.975555 237.590942,257.040466 
	C236.079865,257.048553 234.571655,257.594177 232.449905,258.256073 
	C227.647583,261.438904 227.247925,266.666534 231.461517,271.091309 
	C238.201965,278.169556 244.934448,285.255402 251.676926,292.331726 
	C263.874054,305.132812 276.060974,317.943665 288.285065,330.718933 
	C292.018494,334.620697 295.964111,338.322784 299.630188,342.285034 
	C307.655975,350.959259 315.513977,359.788696 323.535980,368.466522 
	C331.751373,377.353546 340.064941,386.150085 348.364410,394.959015 
	C357.216949,404.355072 366.103210,413.719330 375.224792,423.600006 
	C375.788452,424.343384 376.352112,425.086731 375.999084,425.975067 
	C364.343628,426.031708 352.688141,426.088318 340.735443,425.520752 
	C339.166016,423.413666 337.815613,421.090271 335.987030,419.239166 
	C329.975830,413.153687 323.682434,407.345917 317.701752,401.231598 
	C310.754730,394.129364 303.916473,386.913666 297.222626,379.572479 
	C285.800781,367.045959 274.669403,354.252563 263.149353,341.818298 
	C253.655090,331.570587 243.753845,321.700653 234.073685,311.624207 
	C228.658768,305.987610 223.304367,300.292328 217.962189,294.586517 
	C207.639557,283.561188 197.438141,272.420380 186.995911,261.509857 
	C182.365158,256.671417 176.081039,256.568237 170.461853,258.557861 
	C165.502853,260.313721 165.712830,265.550262 165.226059,270.385315 
	C165.151932,280.587646 165.059860,290.789978 165.046356,300.992401 
	C165.045517,301.633514 165.658447,302.275391 166.061340,303.622528 
	C166.135269,304.089294 166.209198,304.556030 166.150467,305.706848 
	C166.096405,306.168243 166.042343,306.629608 165.188980,307.427032 
	C165.127167,320.613770 165.051453,333.800476 165.045578,346.987244 
	C165.045303,347.630249 165.656891,348.273499 166.040771,349.863007 
	C166.123947,361.563354 166.207138,373.263733 166.148727,385.854553 
	C166.195557,388.245880 166.242371,390.637238 166.153168,393.948578 
	C166.199844,398.955750 166.246521,403.962891 166.158463,409.855743 
	C166.203995,412.248932 166.249542,414.642090 166.164566,417.914703 
	C165.660950,421.704102 167.879395,426.993256 160.124191,427.136139 
	C157.747421,427.194427 155.370667,427.252686 152.190155,427.171417 
	C150.842682,427.062012 149.495209,426.952606 147.978745,426.761169 
	C147.978745,426.761169 147.881577,426.921906 147.912628,426.085358 
	C147.608444,424.003448 147.040192,421.921783 147.038528,419.839630 
	C146.992569,362.268158 147.019730,304.696625 146.998627,247.125122 
	C146.990082,223.784775 146.897202,200.444443 147.587082,176.982269 
	C149.640411,174.798935 152.161011,172.892456 153.652054,170.375961 
	C156.991821,164.739319 154.191132,152.855621 148.913132,150.198761 
	C143.756958,147.603241 137.986420,146.288391 132.725296,149.340836 
	C127.453148,152.399704 123.594498,156.679321 124.885078,163.871948 
	C125.323875,166.317490 124.270981,169.366623 123.028000,171.669418 
	C122.070709,173.442886 119.658401,174.381546 118.053101,175.864594 
	C114.384560,179.253754 110.970955,182.940689 107.116867,186.095016 
	C105.808228,187.166031 103.440598,187.490845 101.640312,187.312820 
	C95.761086,186.731476 90.573677,189.466919 89.694038,194.371384 
	C88.541656,200.796600 83.893456,200.784729 80.009392,202.449677 
	C77.136505,203.681152 74.485680,204.446075 70.799156,202.522888 
	C64.259865,199.111465 55.889633,204.199615 54.341812,211.417694 
	C52.867599,218.292526 55.852211,223.372253 62.811653,225.833206 
	C68.576836,227.871857 69.889717,231.263565 68.026093,236.803101 
	C66.809593,240.419052 66.118042,244.414734 66.196442,248.219620 
	C66.345734,255.465088 74.130096,262.314209 81.276642,261.851959 
	C89.404228,261.326324 97.477379,253.414108 97.070557,246.997742 
	C96.463753,237.427246 92.561821,232.460495 82.906013,231.070801 
	C78.372322,230.418304 76.480804,227.793869 77.387032,223.366806 
	C78.046150,220.146912 78.742378,216.934616 79.386360,213.887833 
	C81.889755,212.767242 84.207909,211.514969 86.669495,210.691345 
	C88.889091,209.948715 91.723495,208.607117 93.499069,209.367920 
	C105.320259,214.433182 113.550751,209.311539 114.220787,196.301102 
	C114.314331,194.484604 115.595573,192.385757 116.946960,191.040268 
	C121.480553,186.526505 126.294891,182.294693 131.791000,178.348358 
	C131.826385,178.511047 131.892715,178.673721 131.892792,178.836426 
	C131.930847,260.237823 131.973541,341.639221 131.916916,423.040558 
	C131.916016,424.346039 130.697433,425.650665 129.165115,427.015564 
	C127.107094,427.103149 125.049065,427.190704 122.093781,427.152496 
	C119.074471,427.167358 116.055161,427.182190 112.344704,427.088043 
	C111.882996,427.140167 111.421280,427.192291 110.255707,427.144226 
	C109.467522,426.728729 108.679337,426.313263 107.988251,424.975220 
	C107.936264,414.641785 107.884277,404.308319 107.988792,393.052338 
	C107.969955,364.703735 107.951111,336.355103 108.646950,307.955139 
	C116.214813,303.800171 118.168442,296.620026 115.603500,289.548706 
	C113.983047,285.081268 109.206932,280.896515 104.802567,278.515778 
	C99.109039,275.438232 88.772003,280.599701 86.399391,286.373779 
	C82.557838,295.722717 85.132629,304.176392 92.991600,308.945984 
	C92.995461,349.608002 92.987457,390.270020 93.045158,430.931946 
	C93.047546,432.614349 93.665230,434.295868 94.060654,436.590759 
	C94.357056,437.103088 94.653465,437.615387 95.158653,438.563782 
M116.975220,121.935616 
	C116.975220,121.935616 116.927475,121.934700 116.399895,122.142067 
	C115.905663,122.702988 115.411430,123.263908 114.340599,124.194580 
	C112.424950,126.461639 110.625320,128.840088 108.573814,130.976700 
	C99.143028,140.798706 89.624542,150.536484 80.185478,160.350616 
	C78.832825,161.757034 77.145439,163.248642 76.658760,164.992645 
	C75.756294,168.226654 74.503441,172.420547 78.172913,174.354797 
	C80.486732,175.574463 85.017281,175.842041 86.699600,174.389542 
	C91.524643,170.223602 95.283882,164.850006 99.682411,160.157684 
	C108.780594,150.451843 118.023163,140.881363 127.202812,131.251846 
	C131.293320,126.960892 135.375290,122.661812 139.819809,117.989357 
	C144.364792,123.058540 148.648254,127.883530 152.983414,132.661606 
	C163.067795,143.776260 173.139297,154.903076 183.301849,165.945969 
	C185.968185,168.843292 188.814194,171.610611 191.820847,174.149689 
	C194.973724,176.812317 198.765549,176.517044 201.897552,174.421997 
	C204.753128,172.511810 204.614899,167.500534 201.987701,164.546341 
	C195.161163,156.870178 188.299133,149.222519 181.306900,141.697647 
	C174.981155,134.890030 168.319107,128.391693 162.076736,121.510780 
	C156.751999,115.641380 151.800858,109.432213 146.708466,103.353233 
	C144.198853,100.357407 137.051025,99.757111 134.346176,102.657059 
	C131.025650,106.217087 128.030670,110.080750 124.339851,114.162659 
	C122.917740,115.785896 121.495621,117.409134 119.547066,119.275940 
	C119.026573,119.837006 118.506073,120.398064 117.519760,121.153320 
	C117.325378,121.421303 117.130989,121.689285 116.975220,121.935616 
z"/>
<path fill="#274867" opacity="1.000000" stroke="none" 
	d="
M374.974762,423.097473 
	C366.103210,413.719330 357.216949,404.355072 348.364410,394.959015 
	C340.064941,386.150085 331.751373,377.353546 323.535980,368.466522 
	C315.513977,359.788696 307.655975,350.959259 299.630188,342.285034 
	C295.964111,338.322784 292.018494,334.620697 288.285065,330.718933 
	C276.060974,317.943665 263.874054,305.132812 251.676926,292.331726 
	C244.934448,285.255402 238.201965,278.169556 231.461517,271.091309 
	C227.247925,266.666534 227.647583,261.438904 233.172424,258.097229 
	C235.274658,258.011017 236.654343,258.083588 238.247589,258.334045 
	C239.297607,258.393158 240.134064,258.274445 241.312698,258.087463 
	C242.115738,258.063934 242.576599,258.108673 243.386993,258.365723 
	C253.809158,258.437897 263.881805,258.297821 274.195618,258.046326 
	C274.605713,257.651947 274.774658,257.368927 274.943604,257.085938 
	C299.910492,255.335098 319.291321,244.625290 332.818298,222.956329 
	C342.627777,207.242584 344.448547,190.211090 342.733032,172.751160 
	C341.808868,163.345428 339.777924,153.585892 333.188019,145.695648 
	C329.248047,140.978226 326.472198,135.200928 322.180664,130.887390 
	C317.079895,125.760490 311.377167,120.854073 305.089539,117.384956 
	C297.699615,113.307671 289.455109,110.729279 281.464752,107.820808 
	C279.054077,106.943344 276.255585,107.131287 273.012421,106.611481 
	C271.921173,106.217499 271.452271,106.043243 270.638733,105.647621 
	C260.876007,105.029884 251.460587,104.397858 242.039291,104.292976 
	C228.292877,104.139938 214.540131,104.249489 200.794647,104.499008 
	C196.521637,104.576576 192.263474,105.471130 188.058929,106.395737 
	C189.434845,106.907211 190.750366,107.014626 192.065872,107.122032 
	C193.616638,110.163445 194.671265,113.627800 196.825424,116.154861 
	C200.836777,120.860603 205.734161,124.813034 209.721680,129.535858 
	C210.899887,130.931351 211.254166,134.953110 210.252777,135.862244 
	C208.069046,137.844818 204.655136,139.794525 201.961502,139.531250 
	C199.119202,139.253433 196.101883,136.806015 193.910934,134.571228 
	C187.487869,128.019608 181.470642,121.071846 175.227585,114.341309 
	C172.007294,110.869560 168.220596,107.825821 165.544067,103.992264 
	C164.382156,102.328087 164.971100,99.059944 165.559906,96.720428 
	C165.842575,95.597359 167.915024,94.303650 169.276474,94.179581 
	C175.531311,93.609566 181.821259,93.425148 188.658691,93.444855 
	C190.483353,93.595078 191.747925,93.402809 193.012497,93.210541 
	C195.700211,93.151520 198.387909,93.092499 201.819427,93.007462 
	C202.760513,92.973953 202.957764,92.966446 203.382431,92.987503 
	C203.609863,93.016068 204.056061,93.121269 204.319916,93.320816 
	C206.034515,93.389885 207.485229,93.259415 209.284088,93.090622 
	C210.098358,93.069046 210.564514,93.085793 211.128220,93.406250 
	C212.476578,93.522621 213.727371,93.335274 215.325928,93.105209 
	C216.139618,93.084663 216.605560,93.106819 217.411194,93.347221 
	C223.132904,93.419418 228.514938,93.273384 234.333771,93.076553 
	C236.526840,93.059128 238.283096,93.092514 240.139938,93.221359 
	C240.240540,93.316818 240.628052,93.366333 240.628052,93.366333 
	C240.628052,93.366333 240.958923,93.130905 241.298645,93.090050 
	C242.092468,93.078987 242.546555,93.108772 243.160645,93.490562 
	C252.560516,93.863457 261.800415,93.884354 271.040314,93.905258 
	C284.381531,92.404602 296.497437,96.954140 308.277863,102.129349 
	C313.773285,104.543503 319.004822,108.143806 323.467621,112.186989 
	C330.300629,118.377518 337.470215,124.691895 342.452454,132.293655 
	C347.670502,140.255173 351.442169,149.523956 354.055695,158.729660 
	C356.549591,167.513947 357.880219,176.974228 357.709564,186.099731 
	C357.311951,207.362427 350.400787,226.621353 336.351501,242.920990 
	C332.962799,246.852463 329.016052,250.300156 325.399963,254.041885 
	C324.958496,254.498703 324.979004,255.401962 324.510620,256.425842 
	C322.836792,257.202942 321.437714,257.652557 320.379761,258.328857 
	C321.866821,258.705109 323.012695,258.984436 324.158722,258.985321 
	C353.651825,259.007874 383.144989,259.013428 412.638000,258.963959 
	C414.079773,258.961548 415.520660,258.433136 417.402405,258.078186 
	C420.847473,257.704132 423.852112,257.401520 426.856720,257.098907 
	C428.865814,259.240265 432.514832,261.308105 432.614716,263.535095 
	C433.210663,276.823822 433.146729,290.151703 432.945862,303.461029 
	C432.882751,307.644043 434.724701,312.640533 429.228088,315.417725 
	C419.564453,315.179626 410.363251,315.093140 401.163239,315.163422 
	C400.429077,315.168976 399.703186,316.257812 398.973450,316.843201 
	C395.100403,316.485779 391.559967,317.051880 388.611816,320.708069 
	C386.524872,320.332458 384.856323,319.673004 383.187805,319.013550 
	C381.901001,318.344666 380.652985,317.206390 379.319977,317.096130 
	C375.534973,316.783112 371.715271,316.890015 367.323029,316.455872 
	C365.210968,315.602753 363.685760,314.717102 362.159027,314.714508 
	C352.537537,314.698120 342.914368,314.818268 333.294647,315.027069 
	C330.194305,315.094330 327.102692,315.565308 323.611115,315.942627 
	C322.141144,315.973572 321.067108,315.913452 319.642548,315.638977 
	C313.864532,315.562531 308.437073,315.700531 302.718384,315.911377 
	C301.986664,316.278198 301.546234,316.572235 301.105774,316.866241 
	C299.661804,316.955017 298.217865,317.043823 295.836731,317.190247 
	C299.276459,321.422058 302.021454,325.196350 305.168671,328.598633 
	C315.774170,340.063812 326.476196,351.440857 337.228241,362.769073 
	C350.704468,376.967499 364.367004,390.990326 377.753906,405.271912 
	C385.702820,413.752075 393.276031,422.584442 400.819214,431.866943 
	C399.381134,437.297485 396.898102,439.626495 391.436676,438.216980 
	C389.561035,437.732880 387.164062,439.268829 384.539948,439.944824 
	C368.383911,439.966492 352.693207,439.925323 336.911682,439.568970 
	C335.218811,437.351776 333.739807,435.315765 331.923218,433.647369 
	C331.499115,433.257812 329.929382,434.115662 328.886719,434.399628 
	C319.964264,424.824890 311.037842,415.253845 302.120209,405.674622 
	C283.600037,385.780396 265.110443,365.857605 246.557007,345.994476 
	C236.264954,334.975922 225.795578,324.122559 215.540405,313.070129 
	C204.218506,300.868073 193.051590,288.522247 181.808655,276.246826 
	C181.474487,275.881958 181.044952,275.604431 180.141602,274.973389 
	C178.986557,274.728271 178.349762,274.796021 177.712982,274.863770 
	C178.418030,275.244171 179.123093,275.624573 179.828156,276.005005 
	C179.782806,280.099304 179.737457,284.193573 179.115448,288.680023 
	C177.830795,289.431427 176.758835,289.607117 176.470779,290.178192 
	C173.359818,296.345581 174.834961,304.940491 179.749420,309.993622 
	C179.772369,310.433197 179.795303,310.872742 179.528412,311.701355 
	C178.823959,312.393219 178.409348,312.696014 177.649780,313.122284 
	C173.825211,319.281219 174.054123,323.494629 177.999283,326.379425 
	C178.596893,328.177429 179.192993,329.597198 179.789124,331.016998 
	C179.848724,332.103241 179.908340,333.189484 179.983948,334.919800 
	C179.999924,335.563873 179.846191,336.012451 179.657745,336.261902 
	C179.594528,337.669708 179.719742,338.828064 179.921341,340.411133 
	C179.947144,342.556671 179.896545,344.277435 179.512405,346.139648 
	C178.784088,348.186554 178.389297,350.092041 177.596436,352.040344 
	C176.465530,353.859833 175.124969,355.627319 175.097748,357.414764 
	C174.910797,369.691864 174.939865,381.973511 175.018829,394.252960 
	C175.071716,402.478973 174.779297,410.760590 175.634827,418.913055 
	C176.490112,427.063141 174.709076,429.410675 166.661743,428.091766 
	C168.848038,430.363037 171.065414,432.804932 173.821625,434.101410 
	C174.790100,434.556946 177.071030,432.187286 178.776993,431.147583 
	C179.034485,430.990662 179.425186,431.052246 179.754272,431.012787 
	C179.791199,431.755463 179.828125,432.498108 179.517334,433.729797 
	C177.340103,436.066772 175.510574,437.914703 173.363495,439.845917 
	C172.550842,439.638611 172.055771,439.348053 171.280777,439.148499 
	C170.678467,439.458740 170.356079,439.677979 169.566803,439.962036 
	C145.732056,439.978638 122.364212,439.930389 99.004562,439.485352 
	C98.924782,436.132324 100.491035,435.022461 103.301888,434.980255 
	C105.420845,434.948425 107.535065,434.600525 110.840370,434.276855 
	C106.507774,430.304718 103.318001,427.918427 98.684837,430.825165 
	C97.628304,431.488037 96.239410,431.621094 94.775940,431.999451 
	C94.548386,432.000946 94.093620,432.013916 94.052223,431.637573 
	C94.035431,430.505524 94.060036,429.749847 94.446938,428.962219 
	C98.141350,426.756439 98.009430,425.098053 94.034424,423.577148 
	C94.018738,421.429504 94.045006,419.710022 94.307991,417.996765 
	C94.544708,418.002991 95.018715,418.005981 95.374542,417.891052 
	C99.344299,413.273834 98.982315,404.725159 95.015289,400.526062 
	C95.012161,394.708160 95.013458,389.357117 95.372765,383.861206 
	C96.059166,383.353912 96.705750,382.955383 96.669281,382.634460 
	C95.811790,375.087555 100.349686,368.235168 98.437057,360.189758 
	C96.564613,352.313477 97.459595,343.794891 96.919014,335.572754 
	C96.816322,334.010925 95.681587,332.516968 95.017960,330.538391 
	C95.014229,327.055847 95.015587,324.026642 95.389709,320.969849 
	C96.797142,319.331238 97.831802,317.720245 98.866455,316.109253 
	C97.585159,315.406586 96.303864,314.703918 95.078865,313.641541 
	C95.420204,311.860687 95.705246,310.439484 96.237579,308.813324 
	C97.100746,308.633972 98.235924,308.570923 98.257652,308.698090 
	C99.134277,313.829651 102.925232,312.033752 105.973663,312.467163 
	C105.979782,320.955719 105.976059,328.975464 105.602570,337.085510 
	C104.490288,338.666656 103.119881,340.152069 103.106888,341.649292 
	C103.020615,351.587433 103.199509,361.528687 103.406822,371.466492 
	C103.417778,371.991882 104.469749,372.495575 105.034775,373.468811 
	C105.344757,383.283905 105.657059,392.639557 105.613556,402.074646 
	C100.645866,404.782227 102.018280,409.231384 102.290245,413.098297 
	C102.364204,414.149811 104.676521,415.043854 106.186424,416.009064 
	C106.411316,416.007965 106.860786,415.991180 106.933853,416.327576 
	C106.960526,417.118164 106.914139,417.572388 106.659798,418.338074 
	C106.374359,419.635162 106.296883,420.620697 106.558121,421.681091 
	C106.886322,422.432526 106.875809,423.109070 106.591560,423.917145 
	C106.587746,424.685364 106.857658,425.322083 107.319763,425.959717 
	C107.511940,425.960602 107.891144,425.897797 107.891144,425.897797 
	C108.679337,426.313263 109.467522,426.728729 110.687302,427.428925 
	C111.757881,427.541412 112.396873,427.369232 113.035858,427.197021 
	C116.055161,427.182190 119.074471,427.167358 122.572685,427.535706 
	C123.778336,429.053833 124.505074,430.188782 125.204025,431.280304 
	C123.530113,432.110748 122.076370,432.831940 120.622635,433.553131 
	C120.737762,434.035431 120.852890,434.517700 120.968025,435.000000 
	C126.018265,435.000000 131.069382,435.055298 136.118393,434.976288 
	C138.578140,434.937866 141.637939,435.508423 143.366013,434.294373 
	C146.982040,431.753998 150.589172,432.630829 154.152939,433.124420 
	C160.314606,433.977783 160.688217,433.853119 161.007812,427.274048 
	C167.879395,426.993256 165.660950,421.704102 166.511932,417.590363 
	C167.564713,418.266571 168.270111,419.267120 169.793030,421.427216 
	C170.683731,417.185333 171.718063,414.077606 171.932877,410.914215 
	C172.757507,398.770752 168.663193,386.510132 172.897324,374.395203 
	C173.511505,372.637848 172.974228,370.431305 172.789444,368.449432 
	C171.902985,358.941681 170.521194,349.456146 170.159775,339.930664 
	C169.848251,331.720093 170.757889,323.468170 170.931885,315.230377 
	C170.970688,313.393951 170.190933,311.540253 169.788040,309.694489 
	C169.191223,309.801575 168.594406,309.908630 167.997589,310.015717 
	C167.997589,311.767731 167.997589,313.519775 167.997604,315.271790 
	C167.997696,336.579559 168.041534,357.887543 167.923615,379.194672 
	C167.912949,381.120758 166.859512,383.041077 166.290344,384.964081 
	C166.207138,373.263733 166.123947,361.563354 166.001923,348.926453 
	C165.971466,334.356934 165.979874,320.723969 165.988281,307.091003 
	C166.042343,306.629608 166.096405,306.168243 166.548660,305.430145 
	C169.378006,306.064514 170.808853,305.306763 170.937622,302.641541 
	C171.032715,300.673706 171.183472,298.675293 170.952759,296.732880 
	C170.622864,293.955475 169.967270,291.216736 169.450760,288.461487 
	C168.835419,288.556946 168.220093,288.652374 167.604752,288.747833 
	C167.104279,293.166168 166.603806,297.584503 166.044785,301.537140 
	C166.182617,291.630432 166.379013,282.189392 166.654297,273.280731 
	C166.992355,276.223175 167.251526,278.633301 167.510696,281.043396 
	C168.243958,280.837128 168.977234,280.630859 169.710495,280.424622 
	C168.685837,277.815216 167.661194,275.205811 166.403275,272.448059 
	C166.134796,271.579254 166.099594,270.858734 166.064392,270.138245 
	C165.712830,265.550262 165.502853,260.313721 170.461853,258.557861 
	C176.081039,256.568237 182.365158,256.671417 186.995911,261.509857 
	C197.438141,272.420380 207.639557,283.561188 217.962189,294.586517 
	C223.304367,300.292328 228.658768,305.987610 234.073685,311.624207 
	C243.753845,321.700653 253.655090,331.570587 263.149353,341.818298 
	C274.669403,354.252563 285.800781,367.045959 297.222626,379.572479 
	C303.916473,386.913666 310.754730,394.129364 317.701752,401.231598 
	C323.682434,407.345917 329.975830,413.153687 335.987030,419.239166 
	C337.815613,421.090271 339.166016,423.413666 340.954376,426.242645 
	C348.798798,427.026367 356.424255,427.088226 364.389923,427.364532 
	C368.807129,427.419678 372.884125,427.260345 377.134338,427.002655 
	C377.307526,426.904297 377.705841,426.905396 377.983826,426.871887 
	C377.803314,425.369415 377.344788,423.900482 376.886230,422.431580 
	C376.249084,422.653534 375.611908,422.875519 374.974762,423.097473 
M418.344025,271.309448 
	C417.522675,271.208466 416.701294,271.019379 415.879944,271.019226 
	C383.300079,271.014099 350.720184,271.017914 318.140381,271.072296 
	C317.074738,271.074066 316.009979,271.613281 314.040802,272.049225 
	C310.957855,271.954712 307.874939,271.860199 304.123993,271.324554 
	C288.700806,271.235046 273.277649,271.136719 257.854340,271.090637 
	C257.278290,271.088928 256.700714,271.595795 255.479858,272.038727 
	C255.702011,273.269745 255.500061,274.887665 256.213898,275.670105 
	C261.569641,281.540710 268.008148,286.643555 272.359741,293.154968 
	C277.927307,301.485718 285.125885,303.208527 294.618042,302.696228 
	C295.273834,302.784027 295.929626,302.948456 296.585449,302.948700 
	C336.149811,302.962830 375.714203,302.971619 415.278534,302.927368 
	C416.509735,302.925995 417.740295,302.362061 419.031158,301.117035 
	C419.001617,291.372498 418.972107,281.627991 418.344025,271.309448 
M106.494247,427.534180 
	C106.494247,427.534180 106.472580,427.483429 106.494247,427.534180 
z"/>
<path fill="#294967" opacity="1.000000" stroke="none" 
	d="
M131.001755,177.954926 
	C126.294891,182.294693 121.480553,186.526505 116.946960,191.040268 
	C115.595573,192.385757 114.314331,194.484604 114.220787,196.301102 
	C113.550751,209.311539 105.320259,214.433182 93.499069,209.367920 
	C91.723495,208.607117 88.889091,209.948715 86.669495,210.691345 
	C84.207909,211.514969 81.889755,212.767242 79.386360,213.887833 
	C78.742378,216.934616 78.046150,220.146912 77.387032,223.366806 
	C76.480804,227.793869 78.372322,230.418304 82.906013,231.070801 
	C92.561821,232.460495 96.463753,237.427246 97.070557,246.997742 
	C97.477379,253.414108 89.404228,261.326324 81.276642,261.851959 
	C74.130096,262.314209 66.345734,255.465088 66.196442,248.219620 
	C66.118042,244.414734 66.809593,240.419052 68.026093,236.803101 
	C69.889717,231.263565 68.576836,227.871857 62.811653,225.833206 
	C55.852211,223.372253 52.867599,218.292526 54.341812,211.417694 
	C55.889633,204.199615 64.259865,199.111465 70.799156,202.522888 
	C74.485680,204.446075 77.136505,203.681152 80.009392,202.449677 
	C83.893456,200.784729 88.541656,200.796600 89.694038,194.371384 
	C90.573677,189.466919 95.761086,186.731476 101.640312,187.312820 
	C103.440598,187.490845 105.808228,187.166031 107.116867,186.095016 
	C110.970955,182.940689 114.384560,179.253754 118.053101,175.864594 
	C119.658401,174.381546 122.070709,173.442886 123.028000,171.669418 
	C124.270981,169.366623 125.323875,166.317490 124.885078,163.871948 
	C123.594498,156.679321 127.453148,152.399704 132.725296,149.340836 
	C137.986420,146.288391 143.756958,147.603241 148.913132,150.198761 
	C154.191132,152.855621 156.991821,164.739319 153.652054,170.375961 
	C152.161011,172.892456 149.640411,174.798935 146.963974,177.360779 
	C146.188065,181.817673 146.035278,185.896057 145.679443,189.665085 
	C145.126633,187.544556 144.776855,185.733368 144.381653,183.686951 
	C143.729660,184.212662 143.287094,184.401810 143.285446,184.594803 
	C143.182602,196.491867 143.053772,208.389862 143.168457,220.285431 
	C143.177246,221.196854 144.929474,222.091461 145.932404,223.435425 
	C145.951797,226.253159 145.910126,228.629318 145.490570,231.045334 
	C144.045197,233.332748 142.977722,235.580307 142.261932,237.087418 
	C139.601105,236.414291 136.802994,235.706436 134.003281,234.532623 
	C134.003555,229.378403 134.005447,224.690140 134.367523,219.919571 
	C136.795959,216.163620 139.714783,212.713577 140.751877,208.768829 
	C142.788803,201.021103 138.298828,194.912216 134.009277,188.605453 
	C133.721893,186.490280 133.435959,184.767593 133.192200,182.697662 
	C133.057648,180.636536 132.880920,178.922638 132.704208,177.208740 
	C132.136719,177.457474 131.569229,177.706207 131.001755,177.954926 
M84.250366,250.877060 
	C84.895760,248.708328 86.414055,246.347748 85.989136,244.414230 
	C85.290710,241.236267 82.569809,240.482147 79.274094,241.350327 
	C74.841698,242.517929 75.897858,246.466156 76.523155,248.545334 
	C77.286644,251.083954 80.063965,253.327652 84.250366,250.877060 
M144.633850,161.346390 
	C142.309753,160.707809 139.985672,160.069229 137.661575,159.430634 
	C137.294525,161.760345 136.927475,164.090073 136.447647,167.135681 
	C140.270462,165.414078 145.617218,168.542099 144.633850,161.346390 
z"/>
<path fill="#284867" opacity="1.000000" stroke="none" 
	d="
M117.985573,120.959122 
	C118.506073,120.398064 119.026573,119.837006 120.175690,119.132202 
	C122.167862,117.263359 123.531410,115.538254 124.894958,113.813148 
	C128.030670,110.080750 131.025650,106.217087 134.346176,102.657059 
	C137.051025,99.757111 144.198853,100.357407 146.708466,103.353233 
	C151.800858,109.432213 156.751999,115.641380 162.076736,121.510780 
	C168.319107,128.391693 174.981155,134.890030 181.306900,141.697647 
	C188.299133,149.222519 195.161163,156.870178 201.987701,164.546341 
	C204.614899,167.500534 204.753128,172.511810 201.897552,174.421997 
	C198.765549,176.517044 194.973724,176.812317 191.820847,174.149689 
	C188.814194,171.610611 185.968185,168.843292 183.301849,165.945969 
	C173.139297,154.903076 163.067795,143.776260 152.983414,132.661606 
	C148.648254,127.883530 144.364792,123.058540 139.819809,117.989357 
	C135.375290,122.661812 131.293320,126.960892 127.202812,131.251846 
	C118.023163,140.881363 108.780594,150.451843 99.682411,160.157684 
	C95.283882,164.850006 91.524643,170.223602 86.699600,174.389542 
	C85.017281,175.842041 80.486732,175.574463 78.172913,174.354797 
	C74.503441,172.420547 75.756294,168.226654 76.658760,164.992645 
	C77.145439,163.248642 78.832825,161.757034 80.185478,160.350616 
	C89.624542,150.536484 99.143028,140.798706 108.573814,130.976700 
	C110.625320,128.840088 112.424950,126.461639 114.840469,124.204758 
	C115.869385,123.454857 116.398430,122.694778 116.927475,121.934708 
	C116.927475,121.934700 116.975220,121.935616 117.167725,121.821854 
	C117.625740,121.506081 117.834183,121.256424 117.985573,120.959122 
z"/>
<path fill="#234665" opacity="1.000000" stroke="none" 
	d="
M134.004883,234.998581 
	C136.802994,235.706436 139.601105,236.414291 142.261932,237.087418 
	C142.977722,235.580307 144.045197,233.332748 145.545593,231.445694 
	C145.936066,232.880188 145.893616,233.954147 145.753845,235.131622 
	C145.525345,235.518387 145.588226,235.764084 145.901764,236.315521 
	C145.920654,237.119583 145.882935,237.580368 145.657593,238.286911 
	C145.598587,239.675674 145.727203,240.818680 145.920868,242.428772 
	C145.937286,258.612305 145.888657,274.328735 145.654755,290.290771 
	C145.593719,291.675964 145.717941,292.815613 145.908356,294.409668 
	C145.929443,297.925171 145.884354,300.986237 145.641388,304.350830 
	C145.579315,306.754944 145.715118,308.855530 145.915680,311.377014 
	C145.936127,313.213745 145.891800,314.629578 145.635162,316.393921 
	C145.281891,325.211334 145.041016,333.680298 145.047073,342.149078 
	C145.049652,345.751587 145.569077,349.353729 145.917786,353.423584 
	C145.942108,375.267548 145.902283,396.643982 145.762222,418.125427 
	C145.528183,418.520660 145.595337,418.769806 145.904053,419.245300 
	C145.911453,419.689911 145.878265,419.867126 145.642288,420.355591 
	C145.720825,422.762543 146.002167,424.858185 146.548569,426.918640 
	C147.169617,426.896240 147.525589,426.909058 147.881577,426.921875 
	C147.881577,426.921906 147.978745,426.761169 148.052643,427.181885 
	C148.976898,428.367645 149.827255,429.132751 150.677612,429.897827 
	C151.449707,429.035522 152.221802,428.173218 152.993896,427.310944 
	C155.370667,427.252686 157.747421,427.194427 160.566010,427.205078 
	C160.688217,433.853119 160.314606,433.977783 154.152939,433.124420 
	C150.589172,432.630829 146.982040,431.753998 143.366013,434.294373 
	C141.637939,435.508423 138.578140,434.937866 136.118393,434.976288 
	C131.069382,435.055298 126.018265,435.000000 120.968025,435.000000 
	C120.852890,434.517700 120.737762,434.035431 120.622635,433.553131 
	C122.076370,432.831940 123.530113,432.110748 125.204025,431.280304 
	C124.505074,430.188782 123.778336,429.053833 123.021317,427.598572 
	C125.049065,427.190704 127.107094,427.103149 129.586853,426.934814 
	C130.008575,426.854095 130.108734,426.812134 130.161621,427.135986 
	C131.111069,427.206726 132.007614,426.953644 132.905670,426.355835 
	C132.987885,425.326721 133.068573,424.642365 133.349365,423.670105 
	C133.406174,421.596161 133.262848,419.810120 133.057831,417.683044 
	C133.040955,416.884216 133.085770,416.426392 133.347809,415.621216 
	C133.710632,413.128387 133.982529,410.983002 133.983414,408.837524 
	C134.007507,350.891205 134.003860,292.944885 134.004883,234.998581 
M142.998169,302.496735 
	C142.998169,282.356873 142.998169,262.216980 142.998169,242.077118 
	C142.434204,242.051071 141.870255,242.025040 141.306290,241.998993 
	C141.204620,243.678955 141.016479,245.358826 141.014542,247.038925 
	C140.993362,265.504883 141.007034,283.970825 140.991150,302.436798 
	C140.989731,304.094452 141.477966,306.216003 140.659500,307.326996 
	C137.578659,311.508820 140.628830,314.590698 141.648895,318.053345 
	C142.098663,318.048859 142.548416,318.044403 142.998169,318.039948 
	C142.998169,313.191284 142.998169,308.342651 142.998169,302.496735 
z"/>
<path fill="#2A4A66" opacity="1.000000" stroke="none" 
	d="
M383.136597,319.393616 
	C384.856323,319.673004 386.524872,320.332458 388.547852,320.996765 
	C389.032043,322.555603 389.161804,324.109589 389.199127,324.556244 
	C394.334503,327.229858 399.070831,329.695709 403.915710,332.976440 
	C404.014465,338.277496 403.891113,342.767120 404.025513,347.248993 
	C404.172180,352.140320 404.557587,357.024506 404.838898,361.911804 
	C403.042725,368.306824 397.480255,369.930206 392.175018,370.715302 
	C385.505737,371.702209 378.591888,371.524384 372.404663,368.106720 
	C370.665863,367.146240 369.446960,365.244659 368.010956,362.944305 
	C368.027313,352.421814 368.022278,342.729828 368.017273,333.037842 
	C371.180023,330.468903 373.997620,327.041870 377.609344,325.589203 
	C380.778687,324.314514 382.464203,322.869934 383.136597,319.393616 
M391.690186,338.910248 
	C392.960876,338.397888 394.231567,337.885529 395.509155,337.370392 
	C391.583588,329.238464 384.192932,328.345276 375.104919,335.611755 
	C377.940094,336.930908 380.081970,338.439301 382.425629,338.883850 
	C385.139862,339.398712 388.031494,338.978119 391.690186,338.910248 
M399.831604,352.296661 
	C398.916351,351.881989 397.981567,351.072418 397.089050,351.116608 
	C391.268677,351.404999 385.456573,351.866608 379.644104,352.302826 
	C378.635132,352.378510 377.637360,352.602753 376.634399,352.758392 
	C376.550812,353.292023 376.467255,353.825623 376.383698,354.359253 
	C380.323608,355.510284 384.330627,357.745239 388.184601,357.506775 
	C392.020813,357.269440 395.703400,354.548584 399.831604,352.296661 
M391.512207,365.082764 
	C394.249573,363.731476 398.627258,365.252197 399.779266,360.287750 
	C393.200958,361.110870 386.989075,361.888184 380.777191,362.665466 
	C380.787262,363.271973 380.797302,363.878448 380.807373,364.484955 
	C384.104645,364.726593 387.401947,364.968262 391.512207,365.082764 
M384.693359,349.014923 
	C386.566681,348.867554 388.439972,348.720184 390.415039,348.564819 
	C389.182892,343.397766 385.233978,342.525909 378.953003,346.029053 
	C380.855591,347.178375 382.370453,348.093475 384.693359,349.014923 
z"/>
<path fill="#284967" opacity="1.000000" stroke="none" 
	d="
M105.963829,311.998352 
	C102.925232,312.033752 99.134277,313.829651 98.257652,308.698090 
	C98.235924,308.570923 97.100746,308.633972 95.928497,308.809448 
	C94.960129,309.015198 94.548157,309.019867 93.994240,308.803131 
	C93.564705,308.391449 93.277107,308.201141 92.989510,308.010864 
	C85.132629,304.176392 82.557838,295.722717 86.399391,286.373779 
	C88.772003,280.599701 99.109039,275.438232 104.802567,278.515778 
	C109.206932,280.896515 113.983047,285.081268 115.603500,289.548706 
	C118.168442,296.620026 116.214813,303.800171 107.965515,308.114380 
	C107.137764,309.189728 106.991455,310.105865 106.670746,311.158142 
	C106.282310,311.501373 106.104805,311.736023 105.963829,311.998352 
M99.572876,289.063477 
	C94.148079,290.021179 96.621979,294.385559 96.191544,297.371887 
	C96.088112,298.089508 98.073654,299.929932 98.464371,299.763672 
	C101.008453,298.681152 104.865562,297.648529 105.461967,295.722778 
	C106.400574,292.692078 104.689125,289.301788 99.572876,289.063477 
z"/>
<path fill="#234665" opacity="1.000000" stroke="none" 
	d="
M166.219543,385.409302 
	C166.859512,383.041077 167.912949,381.120758 167.923615,379.194672 
	C168.041534,357.887543 167.997696,336.579559 167.997604,315.271790 
	C167.997589,313.519775 167.997589,311.767731 167.997589,310.015717 
	C168.594406,309.908630 169.191223,309.801575 169.788040,309.694489 
	C170.190933,311.540253 170.970688,313.393951 170.931885,315.230377 
	C170.757889,323.468170 169.848251,331.720093 170.159775,339.930664 
	C170.521194,349.456146 171.902985,358.941681 172.789444,368.449432 
	C172.974228,370.431305 173.511505,372.637848 172.897324,374.395203 
	C168.663193,386.510132 172.757507,398.770752 171.932877,410.914215 
	C171.718063,414.077606 170.683731,417.185333 169.793030,421.427216 
	C168.270111,419.267120 167.564713,418.266571 166.577194,417.150635 
	C166.249542,414.642090 166.203995,412.248932 166.556519,409.241516 
	C168.278793,403.361755 169.465149,398.102142 166.289200,393.028564 
	C166.242371,390.637238 166.195557,388.245880 166.219543,385.409302 
z"/>
<path fill="#234665" opacity="1.000000" stroke="none" 
	d="
M179.820465,430.561646 
	C179.425186,431.052246 179.034485,430.990662 178.776993,431.147583 
	C177.071030,432.187286 174.790100,434.556946 173.821625,434.101410 
	C171.065414,432.804932 168.848038,430.363037 166.661743,428.091766 
	C174.709076,429.410675 176.490112,427.063141 175.634827,418.913055 
	C174.779297,410.760590 175.071716,402.478973 175.018829,394.252960 
	C174.939865,381.973511 174.910797,369.691864 175.097748,357.414764 
	C175.124969,355.627319 176.465530,353.859833 177.598663,352.474060 
	C177.997559,358.249451 177.996170,363.633942 177.842621,369.365234 
	C177.231049,372.180786 175.328354,375.122131 179.747314,375.993439 
	C179.788467,390.014618 179.829636,404.035767 179.583527,418.597839 
	C179.469269,419.763306 179.642303,420.387848 179.815338,421.012421 
	C179.839111,424.045105 179.862885,427.077789 179.820465,430.561646 
z"/>
<path fill="#9CB2C3" opacity="1.000000" stroke="none" 
	d="
M145.851151,235.028122 
	C145.893616,233.954147 145.936066,232.880188 145.923492,231.405853 
	C145.910126,228.629318 145.951797,226.253159 145.988037,222.970093 
	C145.943268,212.032669 145.903885,202.002136 145.905121,191.738083 
	C145.945709,191.504547 145.850708,191.040100 145.897995,190.774857 
	C145.924347,190.331223 145.903412,190.152817 145.882477,189.974426 
	C146.035278,185.896057 146.188065,181.817673 146.591782,177.421707 
	C146.897202,200.444443 146.990082,223.784775 146.998627,247.125122 
	C147.019730,304.696625 146.992569,362.268158 147.038528,419.839630 
	C147.040192,421.921783 147.608444,424.003448 147.897095,426.503601 
	C147.525589,426.909058 147.169617,426.896240 146.461975,426.492859 
	C146.021927,424.082947 145.933502,422.063629 145.845093,420.044312 
	C145.878265,419.867126 145.911453,419.689911 145.947479,419.005829 
	C145.950302,418.498993 145.862442,418.020416 145.862442,418.020416 
	C145.902283,396.643982 145.942108,375.267548 145.976166,352.961090 
	C145.929413,340.035828 145.888458,328.040619 145.847488,316.045380 
	C145.891800,314.629578 145.936127,313.213745 145.972107,310.947876 
	C145.922256,308.080963 145.880768,306.064117 145.839264,304.047302 
	C145.884354,300.986237 145.929443,297.925171 145.963577,294.020874 
	C145.915100,292.133484 145.877579,291.089325 145.840042,290.045166 
	C145.888657,274.328735 145.937286,258.612305 145.975525,242.038620 
	C145.925171,240.134644 145.885178,239.087891 145.845184,238.041153 
	C145.882935,237.580368 145.920654,237.119583 145.946640,236.079742 
	C145.934891,235.500671 145.851151,235.028122 145.851151,235.028122 
z"/>
<path fill="#B5C1CF" opacity="1.000000" stroke="none" 
	d="
M133.130569,415.968597 
	C133.085770,416.426392 133.040955,416.884216 132.999023,418.104370 
	C133.051025,420.563843 133.100143,422.260925 133.149261,423.958038 
	C133.068573,424.642365 132.987885,425.326721 132.562347,426.448975 
	C131.514587,426.861969 130.811661,426.837036 130.108734,426.812134 
	C130.108734,426.812134 130.008575,426.854095 130.027832,426.904877 
	C130.697433,425.650665 131.916016,424.346039 131.916916,423.040558 
	C131.973541,341.639221 131.930847,260.237823 131.892792,178.836426 
	C131.892715,178.673721 131.826385,178.511047 131.396378,178.151642 
	C131.569229,177.706207 132.136719,177.457474 132.704208,177.208740 
	C132.880920,178.922638 133.057648,180.636536 133.123779,183.158905 
	C133.008118,227.708420 132.984772,271.449463 133.003799,315.190491 
	C133.018402,348.783203 133.086349,382.375885 133.130569,415.968597 
z"/>
<path fill="#6D8297" opacity="1.000000" stroke="none" 
	d="
M92.990555,308.478424 
	C93.277107,308.201141 93.564705,308.391449 93.954330,309.268433 
	C94.070595,326.949219 94.084831,343.943359 94.056160,361.406799 
	C94.041664,366.936615 94.070068,371.997162 94.057816,377.519348 
	C94.035202,391.317535 94.053238,404.654053 94.071274,417.990570 
	C94.045006,419.710022 94.018738,421.429504 93.997116,423.991821 
	C94.029396,426.221191 94.057022,427.607666 94.084641,428.994141 
	C94.060036,429.749847 94.035431,430.505524 94.016830,432.027527 
	C93.991455,433.835083 93.960091,434.876373 93.930290,435.949860 
	C93.931854,435.982086 93.996246,435.977814 93.996246,435.977814 
	C93.665230,434.295868 93.047546,432.614349 93.045158,430.931946 
	C92.987457,390.270020 92.995461,349.608002 92.990555,308.478424 
z"/>
<path fill="#BBCCDB" opacity="1.000000" stroke="none" 
	d="
M426.399292,257.056335 
	C423.852112,257.401520 420.847473,257.704132 416.939880,258.016357 
	C384.037476,258.051392 352.038055,258.076782 320.038635,258.102173 
	C321.437714,257.652557 322.836792,257.202942 324.587219,256.704285 
	C328.406372,256.771973 331.874146,256.986725 335.342072,256.990112 
	C365.542023,257.019470 395.741943,257.010986 426.399292,257.056335 
z"/>
<path fill="#FEFFFF" opacity="1.000000" stroke="none" 
	d="
M106.845139,311.021973 
	C106.991455,310.105865 107.137764,309.189728 107.608170,308.140076 
	C107.951111,336.355103 107.969955,364.703735 107.744781,393.513306 
	C107.500778,393.974243 107.169266,393.973236 107.093849,393.512207 
	C106.960670,365.708099 106.902901,338.365051 106.845139,311.021973 
z"/>
<path fill="#DEFCFE" opacity="1.000000" stroke="none" 
	d="
M192.526718,107.063766 
	C190.750366,107.014626 189.434845,106.907211 188.527618,106.403275 
	C216.285049,105.960823 243.634201,105.914902 270.983368,105.868980 
	C271.452271,106.043243 271.921173,106.217499 272.549774,106.584930 
	C246.135498,106.853897 219.561539,106.929703 192.526718,107.063766 
z"/>
<path fill="#9AA8BE" opacity="1.000000" stroke="none" 
	d="
M171.560699,439.057495 
	C172.055771,439.348053 172.550842,439.638611 173.662964,439.932098 
	C174.894958,439.986023 175.509903,440.036987 176.124863,440.087952 
	C175.587921,440.381195 175.050598,440.931610 174.514099,440.930786 
	C148.895416,440.892090 123.276833,440.805695 97.746696,440.411011 
	C98.222237,440.025604 98.609306,439.953888 98.996376,439.882141 
	C122.364212,439.930389 145.732056,439.978638 169.907104,439.974548 
	C170.996445,439.633972 171.278564,439.345734 171.560699,439.057495 
z"/>
<path fill="#234665" opacity="1.000000" stroke="none" 
	d="
M99.004562,439.485352 
	C98.609306,439.953888 98.222237,440.025604 97.543915,440.048370 
	C96.916237,439.864685 96.579811,439.729980 96.091942,439.024780 
	C95.627075,437.636200 95.313660,436.818115 95.000122,436.000000 
	C95.000000,436.000000 94.999832,436.000000 94.999710,435.600037 
	C95.000893,434.132721 95.002190,433.065338 95.003487,431.997986 
	C96.239410,431.621094 97.628304,431.488037 98.684837,430.825165 
	C103.318001,427.918427 106.507774,430.304718 110.840370,434.276855 
	C107.535065,434.600525 105.420845,434.948425 103.301888,434.980255 
	C100.491035,435.022461 98.924782,436.132324 99.004562,439.485352 
z"/>
<path fill="#234665" opacity="1.000000" stroke="none" 
	d="
M166.103348,302.002838 
	C166.603806,297.584503 167.104279,293.166168 167.604752,288.747833 
	C168.220093,288.652374 168.835419,288.556946 169.450760,288.461487 
	C169.967270,291.216736 170.622864,293.955475 170.952759,296.732880 
	C171.183472,298.675293 171.032715,300.673706 170.937622,302.641541 
	C170.808853,305.306763 169.378006,306.064514 166.614990,305.088135 
	C166.209198,304.556030 166.135269,304.089294 166.030060,303.038239 
	C165.998764,302.453949 166.103348,302.002838 166.103348,302.002838 
z"/>
<path fill="#234665" opacity="1.000000" stroke="none" 
	d="
M179.822311,309.582764 
	C174.834961,304.940491 173.359818,296.345581 176.470779,290.178192 
	C176.758835,289.607117 177.830795,289.431427 178.966064,289.063354 
	C179.463608,291.351227 179.533829,293.647888 179.241486,296.648499 
	C179.183533,299.904846 179.488144,302.457306 179.792770,305.009735 
	C179.826920,306.397125 179.861053,307.784546 179.822311,309.582764 
z"/>
<path fill="#FEFFFF" opacity="1.000000" stroke="none" 
	d="
M319.993103,315.853333 
	C321.067108,315.913452 322.141144,315.973572 324.075684,316.009583 
	C336.034485,315.992401 347.132965,315.963867 358.230621,316.048248 
	C359.722015,316.059601 361.209076,316.640259 362.698151,316.957336 
	C342.474243,316.968658 322.250366,316.979980 301.566101,316.928772 
	C301.546234,316.572235 301.986664,316.278198 303.181152,315.982086 
	C309.287842,315.937744 314.640472,315.895538 319.993103,315.853333 
z"/>
<path fill="#9AA8BE" opacity="1.000000" stroke="none" 
	d="
M337.002472,439.884155 
	C352.693207,439.925323 368.383911,439.966492 384.996277,440.002625 
	C389.583099,440.001312 393.248352,440.005035 396.913574,440.008789 
	C395.433075,440.335297 393.953491,440.941010 392.471924,440.945831 
	C373.944031,441.006195 355.415863,440.979492 336.472687,440.687317 
	C336.372559,440.227753 336.687531,440.055969 337.002472,439.884155 
z"/>
<path fill="#203C53" opacity="1.000000" stroke="none" 
	d="
M399.422455,316.894409 
	C399.703186,316.257812 400.429077,315.168976 401.163239,315.163422 
	C410.363251,315.093140 419.564453,315.179626 428.894104,315.530945 
	C427.106842,316.225067 425.195190,316.921997 423.274048,316.949249 
	C415.474762,317.059845 407.672577,316.964813 399.422455,316.894409 
z"/>
<path fill="#BBCCDB" opacity="1.000000" stroke="none" 
	d="
M364.049744,427.150085 
	C356.424255,427.088226 348.798798,427.026367 341.102997,426.554749 
	C352.688141,426.088318 364.343628,426.031708 376.661011,426.034912 
	C377.674927,426.259033 377.802551,426.529236 377.705841,426.905396 
	C377.705841,426.905396 377.307526,426.904297 376.675690,426.966064 
	C372.045807,427.068573 368.047791,427.109314 364.049744,427.150085 
z"/>
<path fill="#21405A" opacity="1.000000" stroke="none" 
	d="
M270.870239,93.610199 
	C261.800415,93.884354 252.560516,93.863457 243.581650,93.440521 
	C246.202362,92.738609 248.562042,92.438744 250.921722,92.138878 
	C256.622864,92.385513 262.324707,92.618324 268.024475,92.893097 
	C268.921082,92.936317 269.808502,93.169693 270.870239,93.610199 
z"/>
<path fill="#7B8385" opacity="1.000000" stroke="none" 
	d="
M250.459320,92.085052 
	C248.562042,92.438744 246.202362,92.738609 243.421661,93.088516 
	C242.546555,93.108772 242.092468,93.078987 241.068924,93.065979 
	C240.499481,93.082771 240.039337,93.125893 240.039337,93.125900 
	C238.283096,93.092514 236.526840,93.059128 233.877792,93.036896 
	C227.680481,93.075027 222.375992,93.102005 217.071487,93.128983 
	C216.605560,93.106819 216.139618,93.084663 214.932373,93.061798 
	C213.137604,93.074905 212.084137,93.088722 211.030670,93.102539 
	C210.564514,93.085793 210.098358,93.069046 208.879364,93.047256 
	C206.769699,93.068558 205.412888,93.094910 204.056061,93.121262 
	C204.056061,93.121269 203.609863,93.016068 203.343521,92.786392 
	C203.077179,92.556725 203.059830,92.147499 203.059830,92.147507 
	C218.705521,92.108742 234.351227,92.069977 250.459320,92.085052 
z"/>
<path fill="#243F58" opacity="1.000000" stroke="none" 
	d="
M363.133240,316.969910 
	C361.209076,316.640259 359.722015,316.059601 358.230621,316.048248 
	C347.132965,315.963867 336.034485,315.992401 324.471680,315.918549 
	C327.102692,315.565308 330.194305,315.094330 333.294647,315.027069 
	C342.914368,314.818268 352.537537,314.698120 362.159027,314.714508 
	C363.685760,314.717102 365.210968,315.602753 366.861389,316.380249 
	C365.846741,316.781067 364.707520,316.881775 363.133240,316.969910 
z"/>
<path fill="#21405A" opacity="1.000000" stroke="none" 
	d="
M177.994781,369.018433 
	C177.996170,363.633942 177.997559,358.249451 177.996735,352.431274 
	C178.389297,350.092041 178.784088,348.186554 179.580261,346.603638 
	C180.295456,352.563202 180.609253,358.200165 180.923065,363.837158 
	C180.589417,365.623047 180.255768,367.408905 179.633667,369.460419 
	C178.895065,369.490173 178.444916,369.254303 177.994781,369.018433 
z"/>
<path fill="#8282FB" opacity="1.000000" stroke="none" 
	d="
M165.588623,307.259033 
	C165.979874,320.723969 165.971466,334.356934 165.973297,348.453278 
	C165.656891,348.273499 165.045303,347.630249 165.045578,346.987244 
	C165.051453,333.800476 165.127167,320.613770 165.588623,307.259033 
z"/>
<path fill="#BBCCDB" opacity="1.000000" stroke="none" 
	d="
M238.034042,258.156189 
	C236.654343,258.083588 235.274658,258.011017 233.478546,257.914551 
	C234.571655,257.594177 236.079865,257.048553 237.590942,257.040466 
	C249.730957,256.975555 261.871521,257.012085 274.477783,257.051758 
	C274.774658,257.368927 274.605713,257.651947 273.734314,257.980042 
	C263.033722,258.067871 253.035599,258.110657 243.037460,258.153412 
	C242.576599,258.108673 242.115738,258.063934 240.947937,258.026978 
	C239.505341,258.075226 238.769684,258.115692 238.034042,258.156189 
z"/>
<path fill="#234665" opacity="1.000000" stroke="none" 
	d="
M177.997787,326.001221 
	C174.054123,323.494629 173.825211,319.281219 177.675446,313.495239 
	C178.556366,314.550629 179.066666,315.356567 179.576965,316.162537 
	C179.595230,318.108093 179.613510,320.053650 179.280975,322.628113 
	C178.619370,324.171783 178.308578,325.086487 177.997787,326.001221 
z"/>
<path fill="#243F58" opacity="1.000000" stroke="none" 
	d="
M397.273376,439.958130 
	C393.248352,440.005035 389.583099,440.001312 385.461548,439.939758 
	C387.164062,439.268829 389.561035,437.732880 391.436676,438.216980 
	C396.898102,439.626495 399.381134,437.297485 400.865356,432.214111 
	C403.365448,436.096710 401.110138,438.269104 397.273376,439.958130 
z"/>
<path fill="#8282FB" opacity="1.000000" stroke="none" 
	d="
M166.044785,301.537140 
	C166.103348,302.002838 165.998764,302.453949 165.992294,302.685425 
	C165.658447,302.275391 165.045517,301.633514 165.046356,300.992401 
	C165.059860,290.789978 165.151932,280.587646 165.645233,270.261780 
	C166.099594,270.858734 166.134796,271.579254 166.385986,272.488831 
	C166.601974,272.677917 166.575394,272.748383 166.575394,272.748383 
	C166.379013,282.189392 166.182617,291.630432 166.044785,301.537140 
z"/>
<path fill="#DEFCFE" opacity="1.000000" stroke="none" 
	d="
M107.169266,393.973236 
	C107.169266,393.973236 107.500778,393.974243 107.666534,393.974548 
	C107.884277,404.308319 107.936264,414.641785 107.939697,425.436523 
	C107.891144,425.897797 107.511940,425.960602 107.266632,425.690125 
	C106.969315,424.874969 106.917297,424.330322 106.865288,423.785645 
	C106.875809,423.109070 106.886322,422.432526 106.897964,421.472656 
	C106.888649,420.135071 106.878204,419.080841 106.867752,418.026581 
	C106.914139,417.572388 106.960526,417.118164 107.000946,415.863617 
	C107.053078,408.033264 107.111168,401.003235 107.169266,393.973236 
z"/>
<path fill="#274867" opacity="1.000000" stroke="none" 
	d="
M166.221191,393.488586 
	C169.465149,398.102142 168.278793,403.361755 166.623886,408.798676 
	C166.246521,403.962891 166.199844,398.955750 166.221191,393.488586 
z"/>
<path fill="#B5C1CF" opacity="1.000000" stroke="none" 
	d="
M367.605286,333.194885 
	C368.022278,342.729828 368.027313,352.421814 368.005249,362.585754 
	C367.651093,361.909851 367.043640,360.762543 367.041565,359.614136 
	C367.025635,350.860199 367.127869,342.106079 367.605286,333.194885 
z"/>
<path fill="#FEFFFF" opacity="1.000000" stroke="none" 
	d="
M180.959198,363.380676 
	C180.609253,358.200165 180.295456,352.563202 179.913788,346.462219 
	C179.896545,344.277435 179.947144,342.556671 179.989014,340.017151 
	C179.935593,338.136414 179.890900,337.074432 179.846191,336.012451 
	C179.846191,336.012451 179.999924,335.563873 180.013000,335.327057 
	C180.350983,336.554749 180.939560,338.016174 180.956787,339.484283 
	C181.048538,347.296661 180.997177,355.110748 180.959198,363.380676 
z"/>
<path fill="#B5C1CF" opacity="1.000000" stroke="none" 
	d="
M404.909241,361.451050 
	C404.557587,357.024506 404.172180,352.140320 404.025513,347.248993 
	C403.891113,342.767120 404.014465,338.277496 403.994751,333.310913 
	C404.310059,334.484344 404.931213,336.134552 404.952576,337.792542 
	C405.052246,345.523956 404.986267,353.257538 404.909241,361.451050 
z"/>
<path fill="#243F58" opacity="1.000000" stroke="none" 
	d="
M336.911682,439.568970 
	C336.687531,440.055969 336.372559,440.227753 336.001038,440.664124 
	C333.740875,438.910858 331.537262,436.893005 329.110168,434.637390 
	C329.929382,434.115662 331.499115,433.257812 331.923218,433.647369 
	C333.739807,435.315765 335.218811,437.351776 336.911682,439.568970 
z"/>
<path fill="#274867" opacity="1.000000" stroke="none" 
	d="
M177.842621,369.365265 
	C178.444916,369.254303 178.895065,369.490173 179.566284,369.849396 
	C179.816116,371.695648 179.844833,373.418579 179.810440,375.567444 
	C175.328354,375.122131 177.231049,372.180786 177.842621,369.365265 
z"/>
<path fill="#21405A" opacity="1.000000" stroke="none" 
	d="
M177.999283,326.379425 
	C178.308578,325.086487 178.619370,324.171783 179.246140,323.044617 
	C179.682022,325.279846 179.801926,327.727509 179.855469,330.596069 
	C179.192993,329.597198 178.596893,328.177429 177.999283,326.379425 
z"/>
<path fill="#21405A" opacity="1.000000" stroke="none" 
	d="
M179.856659,304.588623 
	C179.488144,302.457306 179.183533,299.904846 179.204559,297.077087 
	C179.660309,299.256989 179.790421,301.712250 179.856659,304.588623 
z"/>
<path fill="#21405A" opacity="1.000000" stroke="none" 
	d="
M176.440369,439.947754 
	C175.509903,440.036987 174.894958,439.986023 173.980530,439.848846 
	C175.510574,437.914703 177.340103,436.066772 179.474930,434.100281 
	C178.772110,435.923676 177.763992,437.865601 176.440369,439.947754 
z"/>
<path fill="#274867" opacity="1.000000" stroke="none" 
	d="
M152.592010,427.241180 
	C152.221802,428.173218 151.449707,429.035522 150.677612,429.897827 
	C149.827255,429.132751 148.976898,428.367645 148.137131,427.222900 
	C149.495209,426.952606 150.842682,427.062012 152.592010,427.241180 
z"/>
<path fill="#203C53" opacity="1.000000" stroke="none" 
	d="
M377.983826,426.871887 
	C377.802551,426.529236 377.674927,426.259033 377.119385,425.962433 
	C376.352112,425.086731 375.788452,424.343384 375.099792,423.348755 
	C375.611908,422.875519 376.249084,422.653534 376.886230,422.431580 
	C377.344788,423.900482 377.803314,425.369415 377.983826,426.871887 
z"/>
<path fill="#243F58" opacity="1.000000" stroke="none" 
	d="
M124.617401,113.987900 
	C123.531410,115.538254 122.167862,117.263359 120.438904,119.010414 
	C121.495621,117.409134 122.917740,115.785896 124.617401,113.987900 
z"/>
<path fill="#21405A" opacity="1.000000" stroke="none" 
	d="
M192.732300,93.044693 
	C191.747925,93.402809 190.483353,93.595078 189.104858,93.495041 
	C190.144653,93.094780 191.298386,92.986816 192.732300,93.044693 
z"/>
<path fill="#21405A" opacity="1.000000" stroke="none" 
	d="
M179.692108,315.829559 
	C179.066666,315.356567 178.556366,314.550629 178.020401,313.371704 
	C178.409348,312.696014 178.823959,312.393219 179.491943,312.030334 
	C179.765961,313.145721 179.786606,314.321136 179.692108,315.829559 
z"/>
<path fill="#234665" opacity="1.000000" stroke="none" 
	d="
M179.891022,275.771423 
	C179.123093,275.624573 178.418030,275.244171 177.712982,274.863770 
	C178.349762,274.796021 178.986557,274.728271 179.830841,274.860962 
	C180.038361,275.061401 179.953888,275.537811 179.891022,275.771423 
z"/>
<path fill="#243F58" opacity="1.000000" stroke="none" 
	d="
M116.663689,122.038391 
	C116.398430,122.694778 115.869385,123.454857 115.128769,124.019882 
	C115.411430,123.263908 115.905663,122.702988 116.663689,122.038391 
z"/>
<path fill="#203C53" opacity="1.000000" stroke="none" 
	d="
M112.690277,427.142548 
	C112.396873,427.369232 111.757881,427.541412 111.039230,427.479004 
	C111.421280,427.192291 111.882996,427.140167 112.690277,427.142548 
z"/>
<path fill="#21405A" opacity="1.000000" stroke="none" 
	d="
M179.868774,420.674988 
	C179.642303,420.387848 179.469269,419.763306 179.529968,419.062744 
	C179.816544,419.437012 179.869385,419.887268 179.868774,420.674988 
z"/>
<path fill="#21405A" opacity="1.000000" stroke="none" 
	d="
M95.000244,436.000000 
	C95.313660,436.818115 95.627075,437.636200 95.931808,438.797211 
	C95.613922,439.020111 95.359108,438.828003 95.068161,437.990784 
	C94.985191,436.945160 94.992722,436.472595 95.000244,436.000000 
z"/>
<path fill="#234665" opacity="1.000000" stroke="none" 
	d="
M95.000122,436.000000 
	C94.992722,436.472595 94.985191,436.945160 94.963760,437.772736 
	C94.653465,437.615387 94.357056,437.103088 94.028450,436.284302 
	C93.996246,435.977814 93.931854,435.982086 94.197754,435.977905 
	C94.642372,435.982452 94.821098,435.991211 94.999832,436.000000 
	C94.999832,436.000000 95.000000,436.000000 95.000122,436.000000 
z"/>
<path fill="#243F58" opacity="1.000000" stroke="none" 
	d="
M117.752670,121.056221 
	C117.834183,121.256424 117.625740,121.506081 117.148422,121.832680 
	C117.130989,121.689285 117.325378,121.421303 117.752670,121.056221 
z"/>
<path fill="#21405A" opacity="1.000000" stroke="none" 
	d="
M202.816818,92.188187 
	C203.059830,92.147499 203.077179,92.556725 203.116089,92.757835 
	C202.957764,92.966446 202.760513,92.973953 202.267029,92.983643 
	C202.068420,92.651093 202.269409,92.398781 202.816818,92.188187 
z"/>
<path fill="#000000" opacity="1.000000" stroke="none" 
	d="
M304.791992,271.765686 
	C307.874939,271.860199 310.957855,271.954712 314.969666,272.014587 
	C324.613983,272.316833 333.329102,272.906708 342.044952,272.917206 
	C350.259613,272.927094 358.472961,272.120972 366.690552,272.037537 
	C384.106628,271.860626 401.525116,271.920593 418.942596,271.883453 
	C418.972107,281.627991 419.001617,291.372498 418.535828,301.563599 
	C392.941223,301.712433 367.842468,301.339294 342.742340,301.168152 
	C336.155670,301.123260 329.567322,301.849670 322.975220,301.964264 
	C313.328979,302.132019 303.678741,302.067352 294.030182,302.101746 
	C285.125885,303.208527 277.927307,301.485718 272.359741,293.154968 
	C268.008148,286.643555 261.569641,281.540710 256.213898,275.670105 
	C255.500061,274.887665 255.702011,273.269745 256.260956,272.002747 
	C272.958710,271.899719 288.875336,271.832733 304.791992,271.765686 
M377.543274,289.544769 
	C379.675720,289.775635 381.808167,290.006531 382.942749,290.129364 
	C383.694366,292.307465 383.842651,294.574524 385.044708,295.573212 
	C385.842926,296.236359 388.441772,295.528320 389.730347,294.673767 
	C397.165985,289.742401 397.238251,286.509277 390.302460,280.744934 
	C389.673859,280.222504 388.885620,279.884430 388.287079,279.334839 
	C385.492188,276.768341 384.568512,278.561432 384.221069,281.153839 
	C384.078369,282.218719 384.501862,283.359467 384.708740,284.738739 
	C382.309692,284.916626 380.172607,285.075104 377.328888,285.074005 
	C376.501251,284.373383 375.673584,283.672760 374.926636,282.221436 
	C374.894318,281.466736 374.862000,280.712036 374.932648,279.138641 
	C373.866119,278.108185 372.892395,276.341736 371.714722,276.193298 
	C368.846863,275.831787 365.884399,276.220795 362.118683,276.200745 
	C360.422638,276.200104 358.726624,276.199463 356.297943,276.077728 
	C354.840698,278.039215 353.383453,280.000671 351.197021,282.047638 
	C350.464539,282.040222 349.732056,282.032806 348.815826,281.570526 
	C348.603485,281.270386 348.315918,281.149963 347.485504,281.140381 
	C347.485504,281.140381 347.014069,281.106750 346.746613,280.566223 
	C346.194641,279.991455 345.642670,279.416656 344.769897,278.248962 
	C342.666656,273.543304 340.009155,277.809052 339.381500,278.671021 
	C337.261292,281.582703 334.237213,285.411163 334.781647,288.276794 
	C335.416504,291.618439 339.352417,294.404205 342.106476,297.182922 
	C342.456696,297.536285 345.160767,296.608185 345.341919,295.904816 
	C346.413483,291.744293 350.507599,291.305634 353.653992,289.575348 
	C353.825317,291.058990 353.996674,292.542603 354.055389,294.709991 
	C353.926117,295.891510 353.796875,297.072998 353.659424,298.329376 
	C356.398956,298.157196 358.689362,298.013245 361.548035,298.013092 
	C365.798859,297.793091 370.476654,298.528839 374.102325,296.909271 
	C375.677399,296.205719 375.088654,290.658173 375.481995,287.311310 
	C375.986053,287.877197 376.490112,288.443054 377.543274,289.544769 
z"/>
<path fill="#234665" opacity="1.000000" stroke="none" 
	d="
M94.098473,377.057678 
	C94.070068,371.997162 94.041664,366.936615 94.281044,361.069153 
	C94.706894,350.505341 94.864960,340.748535 95.023026,330.991699 
	C95.681587,332.516968 96.816322,334.010925 96.919014,335.572754 
	C97.459595,343.794891 96.564613,352.313477 98.437057,360.189758 
	C100.349686,368.235168 95.811790,375.087555 96.669281,382.634460 
	C96.705750,382.955383 96.059166,383.353912 95.368706,383.449402 
	C94.703911,381.140930 94.401192,379.099304 94.098473,377.057678 
z"/>
<path fill="#8A9EAE" opacity="1.000000" stroke="none" 
	d="
M294.324097,302.398987 
	C303.678741,302.067352 313.328979,302.132019 322.975220,301.964264 
	C329.567322,301.849670 336.155670,301.123260 342.742340,301.168152 
	C367.842468,301.339294 392.941223,301.712433 418.505829,302.035278 
	C417.740295,302.362061 416.509735,302.925995 415.278534,302.927368 
	C375.714203,302.971619 336.149811,302.962830 296.585449,302.948700 
	C295.929626,302.948456 295.273834,302.784027 294.324097,302.398987 
z"/>
<path fill="#203C53" opacity="1.000000" stroke="none" 
	d="
M107.093842,393.512207 
	C107.111168,401.003235 107.053078,408.033264 106.927887,415.527222 
	C106.860786,415.991180 106.411316,416.007965 106.197525,415.543365 
	C105.978951,410.717560 105.974152,406.356384 105.969360,401.995178 
	C105.657059,392.639557 105.344757,383.283905 105.268311,373.127747 
	C105.660225,360.549896 105.816284,348.772583 105.972336,336.995239 
	C105.976059,328.975464 105.979782,320.955719 105.973663,312.467163 
	C106.104805,311.736023 106.282310,311.501373 106.670746,311.158142 
	C106.902901,338.365051 106.960670,365.708099 107.093842,393.512207 
z"/>
<path fill="#9AA8BE" opacity="1.000000" stroke="none" 
	d="
M418.643311,271.596436 
	C401.525116,271.920593 384.106628,271.860626 366.690552,272.037537 
	C358.472961,272.120972 350.259613,272.927094 342.044952,272.917206 
	C333.329102,272.906708 324.613983,272.316833 315.421692,271.940979 
	C316.009979,271.613281 317.074738,271.074066 318.140381,271.072296 
	C350.720184,271.017914 383.300079,271.014099 415.879944,271.019226 
	C416.701294,271.019379 417.522675,271.208466 418.643311,271.596436 
z"/>
<path fill="#243F58" opacity="1.000000" stroke="none" 
	d="
M270.638733,105.647621 
	C243.634201,105.914902 216.285049,105.960823 188.467194,105.999207 
	C192.263474,105.471130 196.521637,104.576576 200.794647,104.499008 
	C214.540131,104.249489 228.292877,104.139938 242.039291,104.292976 
	C251.460587,104.397858 260.876007,105.029884 270.638733,105.647621 
z"/>
<path fill="#234665" opacity="1.000000" stroke="none" 
	d="
M105.602570,337.085510 
	C105.816284,348.772583 105.660225,360.549896 105.270630,372.668304 
	C104.469749,372.495575 103.417778,371.991882 103.406822,371.466492 
	C103.199509,361.528687 103.020615,351.587433 103.106888,341.649292 
	C103.119881,340.152069 104.490288,338.666656 105.602570,337.085510 
z"/>
<path fill="#243F58" opacity="1.000000" stroke="none" 
	d="
M320.379761,258.328857 
	C352.038055,258.076782 384.037476,258.051392 416.499451,258.087830 
	C415.520660,258.433136 414.079773,258.961548 412.638000,258.963959 
	C383.144989,259.013428 353.651825,259.007874 324.158722,258.985321 
	C323.012695,258.984436 321.866821,258.705109 320.379761,258.328857 
z"/>
<path fill="#21405A" opacity="1.000000" stroke="none" 
	d="
M95.017952,330.538391 
	C94.864960,340.748535 94.706894,350.505341 94.323944,360.599823 
	C94.084831,343.943359 94.070595,326.949219 94.096268,309.489807 
	C94.548157,309.019867 94.960129,309.015198 95.681198,309.014435 
	C95.705246,310.439484 95.420204,311.860687 95.073143,314.078796 
	C95.013054,316.916290 95.014992,318.956879 95.016937,320.997437 
	C95.015587,324.026642 95.014229,327.055847 95.017952,330.538391 
z"/>
<path fill="#234665" opacity="1.000000" stroke="none" 
	d="
M105.613556,402.074646 
	C105.974152,406.356384 105.978951,410.717560 105.972641,415.544464 
	C104.676521,415.043854 102.364204,414.149811 102.290245,413.098297 
	C102.018280,409.231384 100.645866,404.782227 105.613556,402.074646 
z"/>
<path fill="#9AA8BE" opacity="1.000000" stroke="none" 
	d="
M304.458008,271.545135 
	C288.875336,271.832733 272.958710,271.899719 256.582947,271.916199 
	C256.700714,271.595795 257.278290,271.088928 257.854340,271.090637 
	C273.277649,271.136719 288.700806,271.235046 304.458008,271.545135 
z"/>
<path fill="#234665" opacity="1.000000" stroke="none" 
	d="
M95.019714,400.992920 
	C98.982315,404.725159 99.344299,413.273834 95.369629,417.422821 
	C95.012489,411.710632 95.016106,406.351776 95.019714,400.992920 
z"/>
<path fill="#21405A" opacity="1.000000" stroke="none" 
	d="
M95.015289,400.526062 
	C95.016106,406.351776 95.012489,411.710632 95.013794,417.537720 
	C95.018715,418.005981 94.544708,418.002991 94.307991,417.996765 
	C94.053238,404.654053 94.035202,391.317535 94.057816,377.519348 
	C94.401192,379.099304 94.703911,381.140930 95.010696,383.594330 
	C95.013458,389.357117 95.012161,394.708160 95.015289,400.526062 
z"/>
<path fill="#243F58" opacity="1.000000" stroke="none" 
	d="
M243.386993,258.365723 
	C253.035599,258.110657 263.033722,258.067871 273.493164,258.091431 
	C263.881805,258.297821 253.809158,258.437897 243.386993,258.365723 
z"/>
<path fill="#284967" opacity="1.000000" stroke="none" 
	d="
M95.389709,320.969849 
	C95.014992,318.956879 95.013054,316.916290 95.016838,314.438477 
	C96.303864,314.703918 97.585159,315.406586 98.866455,316.109253 
	C97.831802,317.720245 96.797142,319.331238 95.389709,320.969849 
z"/>
<path fill="#234665" opacity="1.000000" stroke="none" 
	d="
M166.654297,273.280731 
	C166.575394,272.748383 166.601974,272.677917 166.619263,272.637146 
	C167.661194,275.205811 168.685837,277.815216 169.710495,280.424622 
	C168.977234,280.630859 168.243958,280.837128 167.510696,281.043396 
	C167.251526,278.633301 166.992355,276.223175 166.654297,273.280731 
z"/>
<path fill="#243F58" opacity="1.000000" stroke="none" 
	d="
M319.642548,315.638947 
	C314.640472,315.895538 309.287842,315.937744 303.472412,315.909241 
	C308.437073,315.700531 313.864532,315.562531 319.642548,315.638947 
z"/>
<path fill="#21405A" opacity="1.000000" stroke="none" 
	d="
M217.411194,93.347221 
	C222.375992,93.102005 227.680481,93.075027 233.440979,93.087700 
	C228.514938,93.273384 223.132904,93.419418 217.411194,93.347221 
z"/>
<path fill="#234665" opacity="1.000000" stroke="none" 
	d="
M94.446945,428.962219 
	C94.057022,427.607666 94.029396,426.221191 94.039070,424.420013 
	C98.009430,425.098053 98.141350,426.756439 94.446945,428.962219 
z"/>
<path fill="#203C53" opacity="1.000000" stroke="none" 
	d="
M364.389923,427.364502 
	C368.047791,427.109314 372.045807,427.068573 376.502502,427.064423 
	C372.884125,427.260345 368.807129,427.419678 364.389923,427.364502 
z"/>
<path fill="#21405A" opacity="1.000000" stroke="none" 
	d="
M211.128220,93.406250 
	C212.084137,93.088722 213.137604,93.074905 214.584625,93.104507 
	C213.727371,93.335274 212.476578,93.522621 211.128220,93.406250 
z"/>
<path fill="#21405A" opacity="1.000000" stroke="none" 
	d="
M204.319916,93.320808 
	C205.412888,93.094910 206.769699,93.068558 208.531250,93.085571 
	C207.485229,93.259415 206.034515,93.389885 204.319916,93.320808 
z"/>
<path fill="#21405A" opacity="1.000000" stroke="none" 
	d="
M94.999710,435.600037 
	C94.821098,435.991211 94.642372,435.982452 94.196182,435.945679 
	C93.960091,434.876373 93.991455,433.835083 94.058228,432.403870 
	C94.093620,432.013916 94.548386,432.000946 94.775940,431.999451 
	C95.002190,433.065338 95.000893,434.132721 94.999710,435.600037 
z"/>
<path fill="#203C53" opacity="1.000000" stroke="none" 
	d="
M106.591560,423.917145 
	C106.917297,424.330322 106.969315,424.874969 107.074455,425.689209 
	C106.857658,425.322083 106.587746,424.685364 106.591560,423.917145 
z"/>
<path fill="#21405A" opacity="1.000000" stroke="none" 
	d="
M179.657761,336.261902 
	C179.890900,337.074432 179.935593,338.136414 179.912613,339.592407 
	C179.719742,338.828064 179.594528,337.669708 179.657761,336.261902 
z"/>
<path fill="#243F58" opacity="1.000000" stroke="none" 
	d="
M238.247589,258.334045 
	C238.769684,258.115692 239.505341,258.075226 240.605743,258.095245 
	C240.134064,258.274445 239.297607,258.393158 238.247589,258.334045 
z"/>
<path fill="#203C53" opacity="1.000000" stroke="none" 
	d="
M106.659798,418.338074 
	C106.878204,419.080841 106.888649,420.135071 106.559250,421.397797 
	C106.296883,420.620697 106.374359,419.635162 106.659798,418.338074 
z"/>
<path fill="#203C53" opacity="1.000000" stroke="none" 
	d="
M106.483414,427.508789 
	C106.472580,427.483429 106.494247,427.534180 106.483414,427.508789 
z"/>
<path fill="#21405A" opacity="1.000000" stroke="none" 
	d="
M171.280762,439.148499 
	C171.278564,439.345734 170.996445,439.633972 170.374023,439.909698 
	C170.356079,439.677979 170.678467,439.458740 171.280762,439.148499 
z"/>
<path fill="#21405A" opacity="1.000000" stroke="none" 
	d="
M240.139938,93.221359 
	C240.039337,93.125893 240.499481,93.082771 240.729202,93.106842 
	C240.958923,93.130905 240.628052,93.366333 240.628052,93.366333 
	C240.628052,93.366333 240.240540,93.316818 240.139938,93.221359 
z"/>
<path fill="#243F58" opacity="1.000000" stroke="none" 
	d="
M133.347809,415.621216 
	C133.086349,382.375885 133.018402,348.783203 133.003799,315.190491 
	C132.984772,271.449463 133.008118,227.708420 133.081619,183.506149 
	C133.435959,184.767593 133.721893,186.490280 134.005676,189.074280 
	C134.004791,199.957687 134.006058,209.979767 134.007324,220.001862 
	C134.005447,224.690140 134.003555,229.378403 134.003281,234.532623 
	C134.003860,292.944885 134.007507,350.891205 133.983414,408.837524 
	C133.982529,410.983002 133.710632,413.128387 133.347809,415.621216 
z"/>
<path fill="#234665" opacity="1.000000" stroke="none" 
	d="
M134.367523,219.919571 
	C134.006058,209.979767 134.004791,199.957687 134.007111,189.466766 
	C138.298828,194.912216 142.788803,201.021103 140.751877,208.768829 
	C139.714783,212.713577 136.795959,216.163620 134.367523,219.919571 
z"/>
<path fill="#234665" opacity="1.000000" stroke="none" 
	d="
M145.679443,189.665085 
	C145.903412,190.152817 145.924347,190.331223 145.802490,190.878204 
	C145.535400,191.530228 145.603668,191.771835 145.864517,191.971619 
	C145.903885,202.002136 145.943268,212.032669 145.926987,222.528534 
	C144.929474,222.091461 143.177246,221.196854 143.168457,220.285431 
	C143.053772,208.389862 143.182602,196.491867 143.285446,184.594803 
	C143.287094,184.401810 143.729660,184.212662 144.381653,183.686951 
	C144.776855,185.733368 145.126633,187.544556 145.679443,189.665085 
z"/>
<path fill="#000000" opacity="1.000000" stroke="none" 
	d="
M83.896698,251.023285 
	C80.063965,253.327652 77.286644,251.083954 76.523155,248.545334 
	C75.897858,246.466156 74.841698,242.517929 79.274094,241.350327 
	C82.569809,240.482147 85.290710,241.236267 85.989136,244.414230 
	C86.414055,246.347748 84.895760,248.708328 83.896698,251.023285 
z"/>
<path fill="#000000" opacity="1.000000" stroke="none" 
	d="
M144.737473,161.687103 
	C145.617218,168.542099 140.270462,165.414078 136.447647,167.135681 
	C136.927475,164.090073 137.294525,161.760345 137.661575,159.430634 
	C139.985672,160.069229 142.309753,160.707809 144.737473,161.687103 
z"/>
<path fill="#294967" opacity="1.000000" stroke="none" 
	d="
M142.998169,302.995361 
	C142.998169,308.342651 142.998169,313.191284 142.998169,318.039948 
	C142.548416,318.044403 142.098663,318.048859 141.648895,318.053345 
	C140.628830,314.590698 137.578659,311.508820 140.659500,307.326996 
	C141.477966,306.216003 140.989731,304.094452 140.991150,302.436798 
	C141.007034,283.970825 140.993362,265.504883 141.014542,247.038925 
	C141.016479,245.358826 141.204620,243.678955 141.306290,241.998993 
	C141.870255,242.025040 142.434204,242.051071 142.998169,242.077118 
	C142.998169,262.216980 142.998169,282.356873 142.998169,302.995361 
z"/>
<path fill="#21405A" opacity="1.000000" stroke="none" 
	d="
M145.635162,316.393921 
	C145.888458,328.040619 145.929413,340.035828 145.912003,352.493530 
	C145.569077,349.353729 145.049652,345.751587 145.047073,342.149078 
	C145.041016,333.680298 145.281891,325.211334 145.635162,316.393921 
z"/>
<path fill="#21405A" opacity="1.000000" stroke="none" 
	d="
M145.641388,304.350830 
	C145.880768,306.064117 145.922256,308.080963 145.907333,310.526917 
	C145.715118,308.855530 145.579315,306.754944 145.641388,304.350830 
z"/>
<path fill="#21405A" opacity="1.000000" stroke="none" 
	d="
M145.642288,420.355591 
	C145.933502,422.063629 146.021927,424.082947 146.196930,426.528076 
	C146.002167,424.858185 145.720825,422.762543 145.642288,420.355591 
z"/>
<path fill="#243F58" opacity="1.000000" stroke="none" 
	d="
M133.349365,423.670105 
	C133.100143,422.260925 133.051025,420.563843 133.060715,418.445404 
	C133.262848,419.810120 133.406174,421.596161 133.349365,423.670105 
z"/>
<path fill="#203C53" opacity="1.000000" stroke="none" 
	d="
M130.161621,427.135986 
	C130.811661,426.837036 131.514587,426.861969 132.560822,426.793762 
	C132.007614,426.953644 131.111069,427.206726 130.161621,427.135986 
z"/>
<path fill="#21405A" opacity="1.000000" stroke="none" 
	d="
M145.654785,290.290771 
	C145.877579,291.089325 145.915100,292.133484 145.897400,293.566437 
	C145.717941,292.815613 145.593719,291.675964 145.654785,290.290771 
z"/>
<path fill="#21405A" opacity="1.000000" stroke="none" 
	d="
M145.657578,238.286911 
	C145.885178,239.087891 145.925171,240.134644 145.910492,241.571533 
	C145.727203,240.818680 145.598587,239.675674 145.657578,238.286911 
z"/>
<path fill="#21405A" opacity="1.000000" stroke="none" 
	d="
M145.753845,235.131622 
	C145.851151,235.028122 145.934891,235.500671 145.890015,235.736450 
	C145.588226,235.764084 145.525345,235.518387 145.753845,235.131622 
z"/>
<path fill="#21405A" opacity="1.000000" stroke="none" 
	d="
M145.762222,418.125427 
	C145.862442,418.020416 145.950302,418.498993 145.906891,418.738464 
	C145.595337,418.769806 145.528183,418.520660 145.762222,418.125427 
z"/>
<path fill="#000000" opacity="1.000000" stroke="none" 
	d="
M391.268158,338.936920 
	C388.031494,338.978119 385.139862,339.398712 382.425629,338.883850 
	C380.081970,338.439301 377.940094,336.930908 375.104919,335.611755 
	C384.192932,328.345276 391.583588,329.238464 395.509155,337.370392 
	C394.231567,337.885529 392.960876,338.397888 391.268158,338.936920 
z"/>
<path fill="#000000" opacity="1.000000" stroke="none" 
	d="
M399.642456,352.606689 
	C395.703400,354.548584 392.020813,357.269440 388.184601,357.506775 
	C384.330627,357.745239 380.323608,355.510284 376.383698,354.359253 
	C376.467255,353.825623 376.550812,353.292023 376.634399,352.758392 
	C377.637360,352.602753 378.635132,352.378510 379.644104,352.302826 
	C385.456573,351.866608 391.268677,351.404999 397.089050,351.116608 
	C397.981567,351.072418 398.916351,351.881989 399.642456,352.606689 
z"/>
<path fill="#000000" opacity="1.000000" stroke="none" 
	d="
M391.105713,365.146332 
	C387.401947,364.968262 384.104645,364.726593 380.807373,364.484955 
	C380.797302,363.878448 380.787262,363.271973 380.777191,362.665466 
	C386.989075,361.888184 393.200958,361.110870 399.779266,360.287750 
	C398.627258,365.252197 394.249573,363.731476 391.105713,365.146332 
z"/>
<path fill="#000000" opacity="1.000000" stroke="none" 
	d="
M384.289307,349.011749 
	C382.370453,348.093475 380.855591,347.178375 378.953003,346.029053 
	C385.233978,342.525909 389.182892,343.397766 390.415039,348.564819 
	C388.439972,348.720184 386.566681,348.867554 384.289307,349.011749 
z"/>
<path fill="#000000" opacity="1.000000" stroke="none" 
	d="
M99.978897,289.042053 
	C104.689125,289.301788 106.400574,292.692078 105.461967,295.722778 
	C104.865562,297.648529 101.008453,298.681152 98.464371,299.763672 
	C98.073654,299.929932 96.088112,298.089508 96.191544,297.371887 
	C96.621979,294.385559 94.148079,290.021179 99.978897,289.042053 
z"/>
<path fill="#21405A" opacity="1.000000" stroke="none" 
	d="
M145.905121,191.738083 
	C145.603668,191.771835 145.535400,191.530228 145.755203,191.143463 
	C145.850708,191.040100 145.945709,191.504547 145.905121,191.738083 
z"/>
<path fill="#2C4C6A" opacity="1.000000" stroke="none" 
	d="
M357.030579,276.198822 
	C358.726624,276.199463 360.422638,276.200104 362.652832,276.552856 
	C363.767212,278.266937 364.347382,279.628906 364.616760,281.091370 
	C363.869446,282.124390 363.432953,283.056854 362.890381,284.317963 
	C361.152222,285.263580 358.686096,286.882172 358.025696,286.332245 
	C354.228302,283.170074 352.349945,286.540039 348.823029,288.310822 
	C350.945129,288.692902 352.025299,288.887390 353.105469,289.081909 
	C350.507599,291.305634 346.413483,291.744293 345.341919,295.904816 
	C345.160767,296.608185 342.456696,297.536285 342.106476,297.182922 
	C339.352417,294.404205 335.416504,291.618439 334.781647,288.276794 
	C334.237213,285.411163 337.261292,281.582703 339.381500,278.671021 
	C340.009155,277.809052 342.666656,273.543304 344.911621,278.890778 
	C345.288849,280.421051 345.524292,281.309509 345.759766,282.197968 
	C346.177887,281.834229 346.595978,281.470490 347.014069,281.106750 
	C347.014069,281.106750 347.485504,281.140381 347.727417,281.409119 
	C348.086914,282.074890 348.204498,282.471924 348.322083,282.868927 
	C348.547913,282.587769 348.773743,282.306580 348.999573,282.025391 
	C349.732056,282.032806 350.464539,282.040222 351.908386,281.954010 
	C354.089996,279.973175 355.560272,278.085999 357.030579,276.198822 
z"/>
<path fill="#243F58" opacity="1.000000" stroke="none" 
	d="
M353.379730,289.328613 
	C352.025299,288.887390 350.945129,288.692902 348.823029,288.310822 
	C352.349945,286.540039 354.228302,283.170074 358.025696,286.332245 
	C358.686096,286.882172 361.152222,285.263580 363.216400,284.234955 
	C364.074829,282.879181 364.501221,281.935028 364.927582,280.990875 
	C364.347382,279.628906 363.767212,278.266937 363.073547,276.606262 
	C365.884399,276.220795 368.846863,275.831787 371.714722,276.193298 
	C372.892395,276.341736 373.866119,278.108185 374.631042,279.297546 
	C372.100006,278.802795 369.870514,278.149109 366.933380,277.287933 
	C367.301239,280.371765 367.549530,282.453308 367.773834,284.333862 
	C370.605316,283.788666 372.725647,283.380402 374.845947,282.972137 
	C375.673584,283.672760 376.501251,284.373383 377.662720,285.481079 
	C377.662415,286.928436 377.328308,287.968689 376.994202,289.008942 
	C376.490112,288.443054 375.986053,287.877197 375.482361,287.311005 
	C375.088654,290.658173 375.677399,296.205719 374.102325,296.909271 
	C370.476654,298.528839 365.798859,297.793091 361.342163,297.583130 
	C361.433655,296.050751 361.959198,294.950928 361.972076,293.845154 
	C361.989014,292.387695 361.603455,290.925568 361.390930,289.465424 
	C359.929840,290.136475 358.393463,290.684570 357.031738,291.517975 
	C355.964996,292.170868 355.114532,293.177032 354.167999,294.026245 
	C353.996674,292.542603 353.825317,291.058990 353.379730,289.328613 
M367.287750,292.845245 
	C368.192566,293.875458 368.934937,295.280029 370.072571,295.773651 
	C370.619019,296.010773 372.479828,294.676147 372.714600,293.782501 
	C372.972107,292.802460 372.041840,291.510315 371.629181,290.354187 
	C370.268860,290.941986 368.908539,291.529785 367.287750,292.845245 
z"/>
<path fill="#2A4A66" opacity="1.000000" stroke="none" 
	d="
M377.268738,289.276855 
	C377.328308,287.968689 377.662415,286.928436 378.016052,285.560852 
	C380.172607,285.075104 382.309692,284.916626 384.708740,284.738739 
	C384.501862,283.359467 384.078369,282.218719 384.221069,281.153839 
	C384.568512,278.561432 385.492188,276.768341 388.287079,279.334839 
	C388.885620,279.884430 389.673859,280.222504 390.302460,280.744934 
	C397.238251,286.509277 397.165985,289.742401 389.730347,294.673767 
	C388.441772,295.528320 385.842926,296.236359 385.044708,295.573212 
	C383.842651,294.574524 383.694366,292.307465 382.942749,290.129364 
	C381.808167,290.006531 379.675720,289.775635 377.268738,289.276855 
z"/>
<path fill="#2C4C6A" opacity="1.000000" stroke="none" 
	d="
M354.111694,294.368103 
	C355.114532,293.177032 355.964996,292.170868 357.031738,291.517975 
	C358.393463,290.684570 359.929840,290.136475 361.390930,289.465424 
	C361.603455,290.925568 361.989014,292.387695 361.972076,293.845154 
	C361.959198,294.950928 361.433655,296.050751 361.057983,297.511230 
	C358.689362,298.013245 356.398956,298.157196 353.659424,298.329376 
	C353.796875,297.072998 353.926117,295.891510 354.111694,294.368103 
z"/>
<path fill="#274867" opacity="1.000000" stroke="none" 
	d="
M374.886292,282.596802 
	C372.725647,283.380402 370.605316,283.788666 367.773834,284.333862 
	C367.549530,282.453308 367.301239,280.371765 366.933380,277.287933 
	C369.870514,278.149109 372.100006,278.802795 374.579590,279.706909 
	C374.862000,280.712036 374.894318,281.466736 374.886292,282.596802 
z"/>
<path fill="#243F58" opacity="1.000000" stroke="none" 
	d="
M356.664246,276.138275 
	C355.560272,278.085999 354.089996,279.973175 352.272980,281.911255 
	C353.383453,280.000671 354.840698,278.039215 356.664246,276.138275 
z"/>
<path fill="#243F58" opacity="1.000000" stroke="none" 
	d="
M346.880341,280.836487 
	C346.595978,281.470490 346.177887,281.834229 345.759766,282.197968 
	C345.524292,281.309509 345.288849,280.421051 345.072052,279.187225 
	C345.642670,279.416656 346.194641,279.991455 346.880341,280.836487 
z"/>
<path fill="#243F58" opacity="1.000000" stroke="none" 
	d="
M348.907715,281.797974 
	C348.773743,282.306580 348.547913,282.587769 348.322083,282.868927 
	C348.204498,282.471924 348.086914,282.074890 347.961243,281.443542 
	C348.315918,281.149963 348.603485,281.270386 348.907715,281.797974 
z"/>
<path fill="#294967" opacity="1.000000" stroke="none" 
	d="
M364.616760,281.091370 
	C364.501221,281.935028 364.074829,282.879181 363.322449,283.906342 
	C363.432953,283.056854 363.869446,282.124390 364.616760,281.091370 
z"/>
<path fill="#2A4A66" opacity="1.000000" stroke="none" 
	d="
M367.417969,292.481384 
	C368.908539,291.529785 370.268860,290.941986 371.629181,290.354187 
	C372.041840,291.510315 372.972107,292.802460 372.714600,293.782501 
	C372.479828,294.676147 370.619019,296.010773 370.072571,295.773651 
	C368.934937,295.280029 368.192566,293.875458 367.417969,292.481384 
z"/>
</svg>